<svg width="16" height="16" viewBox="0 0 16 16" fill="none" xmlns="http://www.w3.org/2000/svg">
<path d="M13.5 5C14.8807 5 16 3.88071 16 2.5C16 1.11929 14.8807 0 13.5 0C12.1193 0 11 1.11929 11 2.5C11 3.88071 12.1193 5 13.5 5Z" fill="#0068D6"/>
<path fill-rule="evenodd" clip-rule="evenodd" d="M10.0351 4.5H2V6H4.67148C5.89632 6 6.83343 7.09104 6.64857 8.30185L6.43 9.73346C6.3381 10.2159 6.1906 10.6874 6 11.1401L4.33 15.2L5.92164 15.888L7.594 11.9162C7.72668 11.6011 8.27332 11.6011 8.406 11.9162L10.0784 15.888L11.67 15.2L10 11.1401C9.8094 10.6874 9.6619 10.2159 9.57 9.73346L9.2835 8.42904C9.00946 7.18131 9.95947 6 11.2369 6H11.562C10.9272 5.64775 10.3983 5.12781 10.0351 4.5ZM9.5 1.5C9.5 2.32843 8.82843 3 8 3C7.17157 3 6.5 2.32843 6.5 1.5C6.5 0.671573 7.17157 0 8 0C8.82843 0 9.5 0.671573 9.5 1.5Z" fill="currentColor"/>
</svg>
