<svg width="16" height="16" viewBox="0 0 16 16" fill="none" xmlns="http://www.w3.org/2000/svg">
<path fill-rule="evenodd" clip-rule="evenodd" d="M1.90476 3.61905H14.0952C14.6213 3.61905 15.0476 4.04544 15.0476 4.57143V11.4286C15.0476 11.9546 14.6213 12.381 14.0952 12.381H1.90476C1.37877 12.381 0.952381 11.9546 0.952381 11.4286V4.57143C0.952381 4.04544 1.37877 3.61905 1.90476 3.61905ZM0 4.57143C0 3.51946 0.852792 2.66667 1.90476 2.66667H14.0952C15.1472 2.66667 16 3.51946 16 4.57143V11.4286C16 12.4805 15.1472 13.3333 14.0952 13.3333H1.90476C0.852792 13.3333 0 12.4805 0 11.4286V4.57143ZM7.80952 7.14286C7.80952 6.98506 7.93745 6.85714 8.09524 6.85714H9.14286V5.71429H8.09524C7.30626 5.71429 6.66667 6.35388 6.66667 7.14286C6.66667 7.93183 7.30626 8.57143 8.09524 8.57143C8.25303 8.57143 8.38095 8.69934 8.38095 8.85714C8.38095 9.01494 8.25303 9.14286 8.09524 9.14286H6.85714V10.2857H8.09524C8.88419 10.2857 9.52381 9.6461 9.52381 8.85714C9.52381 8.06817 8.88419 7.42857 8.09524 7.42857C7.93745 7.42857 7.80952 7.30066 7.80952 7.14286ZM11.8095 5.71429V8.25584C11.8095 8.30635 11.8296 8.3548 11.8653 8.39052L12.1905 8.71569L12.5157 8.39052C12.5514 8.3548 12.5714 8.30635 12.5714 8.25584V5.71429H13.7143V8.25584C13.7143 8.60946 13.5738 8.9486 13.3237 9.19864L12.5945 9.92785L12.1905 10.332L11.7864 9.92785L11.0572 9.19864C10.8072 8.94859 10.6667 8.60946 10.6667 8.25584V5.71429H11.8095ZM4.09524 5.71429C3.09586 5.71429 2.28571 6.52443 2.28571 7.52381V8.47619C2.28571 9.47557 3.09586 10.2857 4.09524 10.2857C5.09461 10.2857 5.90476 9.47557 5.90476 8.47619V8.38095H4.7619V8.47619C4.7619 8.84438 4.46343 9.14286 4.09524 9.14286C3.72705 9.14286 3.42857 8.84438 3.42857 8.47619V7.52381C3.42857 7.15562 3.72705 6.85714 4.09524 6.85714H4.19048C4.50606 6.85714 4.7619 7.11298 4.7619 7.42857H5.90476C5.90476 6.4818 5.13725 5.71429 4.19048 5.71429H4.09524Z" fill="#666666"/>
</svg>
