<svg width="16" height="16" viewBox="0 0 16 16" fill="none" xmlns="http://www.w3.org/2000/svg">
<path fill-rule="evenodd" clip-rule="evenodd" d="M14.2222 4.59259H1.77775C1.36864 4.59259 1.03701 4.92423 1.03701 5.33333V10.6667C1.03701 11.0758 1.36864 11.4074 1.77775 11.4074H14.2222C14.6313 11.4074 14.9629 11.0758 14.9629 10.6667V5.33333C14.9629 4.92423 14.6313 4.59259 14.2222 4.59259ZM1.77775 3.85185C0.959548 3.85185 0.296265 4.51513 0.296265 5.33333V10.6667C0.296265 11.4849 0.959548 12.1481 1.77775 12.1481H14.2222C15.0404 12.1481 15.7037 11.4849 15.7037 10.6667V5.33333C15.7037 4.51513 15.0404 3.85185 14.2222 3.85185H1.77775ZM11.2592 6.22222H11.7037H11.8518H12.1133L12.2403 6.45083L13.037 7.88484V6.22222H13.9259V9.33333V9.77778H13.4815H13.3333H13.0718L12.9448 9.54917L12.1481 8.11516V9.77778H11.2592V6.66667V6.22222ZM3.25923 8.66667V6.22222H4.14812V8.66667C4.14812 9.28031 3.65065 9.77778 3.03701 9.77778C2.42336 9.77778 1.92589 9.28031 1.92589 8.66667V8.44444H2.81478V8.66667C2.81478 8.7894 2.91427 8.88889 3.03701 8.88889C3.15974 8.88889 3.25923 8.7894 3.25923 8.66667ZM7.70367 7.40741C7.70367 6.75285 8.23428 6.22222 8.88886 6.22222H9.3333C9.98788 6.22222 10.5185 6.75285 10.5185 7.40741V8.59259C10.5185 9.24715 9.98788 9.77778 9.3333 9.77778H8.88886C8.23428 9.77778 7.70367 9.24715 7.70367 8.59259V7.40741ZM8.88886 7.11111C8.72524 7.11111 8.59256 7.24377 8.59256 7.40741V8.59259C8.59256 8.75623 8.72524 8.88889 8.88886 8.88889H9.3333C9.49692 8.88889 9.6296 8.75623 9.6296 8.59259V7.40741C9.6296 7.24377 9.49692 7.11111 9.3333 7.11111H8.88886ZM5.77775 7.33333C5.77775 7.2106 5.87724 7.11111 5.99997 7.11111H6.81478V6.22222H5.99997C5.38632 6.22222 4.88886 6.71969 4.88886 7.33333C4.88886 7.94698 5.38632 8.44444 5.99997 8.44444C6.12269 8.44444 6.22219 8.54393 6.22219 8.66667C6.22219 8.7894 6.12269 8.88889 5.99997 8.88889H5.03701V9.77778H5.99997C6.6136 9.77778 7.11108 9.28031 7.11108 8.66667C7.11108 8.05302 6.6136 7.55556 5.99997 7.55556C5.87724 7.55556 5.77775 7.45607 5.77775 7.33333Z" fill="currentColor"/>
</svg>
