<svg width="16" height="16" viewBox="0 0 16 16" fill="none" xmlns="http://www.w3.org/2000/svg">
<path fill-rule="evenodd" clip-rule="evenodd" d="M2 3.4H14C14.5523 3.4 15 3.84771 15 4.4V11.6C15 12.1523 14.5523 12.6 14 12.6H2C1.44771 12.6 1 12.1523 1 11.6V4.4C1 3.84771 1.44771 3.4 2 3.4ZM0 4.4C0 3.29543 0.895432 2.4 2 2.4H14C15.1046 2.4 16 3.29543 16 4.4V11.6C16 12.7046 15.1046 13.6 14 13.6H2C0.895432 13.6 0 12.7046 0 11.6V4.4ZM3.4 7.1C3.4 6.93431 3.53431 6.8 3.7 6.8H4.8V5.6H3.7C2.87158 5.6 2.2 6.27158 2.2 7.1C2.2 7.92843 2.87158 8.6 3.7 8.6C3.86569 8.6 4 8.73431 4 8.9C4 9.06569 3.86569 9.2 3.7 9.2H2.4V10.4H3.7C4.52842 10.4 5.2 9.7284 5.2 8.9C5.2 8.07158 4.52842 7.4 3.7 7.4C3.53431 7.4 3.4 7.26569 3.4 7.1ZM7.2 5.6V8.46863C7.2 8.52167 7.22107 8.57255 7.25858 8.61005L7.6 8.95147L7.94142 8.61005C7.97893 8.57255 8 8.52167 8 8.46863V5.6H9.2V8.46863C9.2 8.83994 9.05248 9.19603 8.78992 9.45858L8.02424 10.2242L7.6 10.6486L7.17574 10.2242L6.41005 9.45858C6.1475 9.19603 6 8.83994 6 8.46863V5.6H7.2ZM11.8 5.6C10.8059 5.6 10 6.40589 10 7.4V8.6C10 9.59411 10.8059 10.4 11.8 10.4H12.8C13.3523 10.4 13.8 9.95232 13.8 9.4V9C13.8 8.44771 13.3523 8 12.8 8H12.2V9.2H11.8C11.4686 9.2 11.2 8.93137 11.2 8.6V7.4C11.2 7.06863 11.4686 6.8 11.8 6.8H12.2C12.4209 6.8 12.6 6.97909 12.6 7.2H13.8C13.8 6.31635 13.0837 5.6 12.2 5.6H11.8Z" fill="currentColor"/>
</svg>
