<svg width="16" height="16" viewBox="0 0 16 16" fill="none" xmlns="http://www.w3.org/2000/svg">
<path fill-rule="evenodd" clip-rule="evenodd" d="M2 3.4H14C14.5523 3.4 15 3.84771 15 4.4V11.6C15 12.1523 14.5523 12.6 14 12.6H2C1.44771 12.6 1 12.1523 1 11.6V4.4C1 3.84771 1.44771 3.4 2 3.4ZM0 4.4C0 3.29543 0.895432 2.4 2 2.4H14C15.1046 2.4 16 3.29543 16 4.4V11.6C16 12.7046 15.1046 13.6 14 13.6H2C0.895432 13.6 0 12.7046 0 11.6V4.4ZM10.8 10.4V8.93473C11.273 9.15942 11.6 9.64152 11.6 10.2V10.4H12.8V10.2C12.8 9.57133 12.5769 8.99478 12.2055 8.54521C12.5651 8.29182 12.8 7.87334 12.8 7.4V7C12.8 6.2268 12.1732 5.6 11.4 5.6H10.8H10.2H9.6V6.2V8.2V8.8V10.4H10.8ZM11.4 7.6H10.8V6.8H11.4C11.5105 6.8 11.6 6.88954 11.6 7V7.4C11.6 7.51046 11.5105 7.6 11.4 7.6ZM4.4 5.6V10.4H3.2V5.6H4.4ZM6.8 7.1C6.8 6.93431 6.93431 6.8 7.1 6.8H8.2V5.6H7.1C6.27158 5.6 5.6 6.27158 5.6 7.1C5.6 7.92842 6.27158 8.6 7.1 8.6C7.26569 8.6 7.4 8.73431 7.4 8.9C7.4 9.06569 7.26569 9.2 7.1 9.2H5.8V10.4H7.1C7.92842 10.4 8.6 9.7284 8.6 8.9C8.6 8.07158 7.92842 7.4 7.1 7.4C6.93431 7.4 6.8 7.26569 6.8 7.1Z" fill="#666666"/>
</svg>
