<svg width="16" height="16" viewBox="0 0 16 16" fill="none" xmlns="http://www.w3.org/2000/svg">
<path fill-rule="evenodd" clip-rule="evenodd" d="M1.42857 4.71429H14.5714C14.9659 4.71429 15.2857 5.03408 15.2857 5.42857V10.5714C15.2857 10.9659 14.9659 11.2857 14.5714 11.2857H1.42857C1.03408 11.2857 0.714286 10.9659 0.714286 10.5714V5.42857C0.714286 5.03408 1.03408 4.71429 1.42857 4.71429ZM0 5.42857C0 4.63959 0.639594 4 1.42857 4H14.5714C15.3604 4 16 4.63959 16 5.42857V10.5714C16 11.3604 15.3604 12 14.5714 12H1.42857C0.639594 12 0 11.3604 0 10.5714V5.42857ZM6 7.28571V8H6.57143V7.28571C6.57143 7.20682 6.50749 7.14286 6.42857 7.14286H6.14286C6.06394 7.14286 6 7.20682 6 7.28571ZM6 9.71429V8.85714H6.57143V9.71429H7.42857V7.28571C7.42857 6.73343 6.98086 6.28571 6.42857 6.28571H6.14286C5.59057 6.28571 5.14286 6.73343 5.14286 7.28571V9.71429H6ZM3.14286 9.71429V8.57143H3.57143C4.12371 8.57143 4.57143 8.12371 4.57143 7.57143V7.28571C4.57143 6.73343 4.12371 6.28571 3.57143 6.28571H3.14286H2.71429H2.28571V6.71429V8.14286V8.57143V9.71429H3.14286ZM3.57143 7.71429H3.14286V7.14286H3.57143C3.65033 7.14286 3.71429 7.20682 3.71429 7.28571V7.57143C3.71429 7.65033 3.65033 7.71429 3.57143 7.71429ZM8 7.57143C8 6.86135 8.57566 6.28571 9.28572 6.28571H9.57143C10.2026 6.28571 10.7143 6.79739 10.7143 7.42857H9.85714C9.85714 7.27078 9.7292 7.14286 9.57143 7.14286H9.28572C9.04903 7.14286 8.85714 7.33474 8.85714 7.57143V8.42857C8.85714 8.66526 9.04903 8.85714 9.28572 8.85714H9.57143V8H10C10.3945 8 10.7143 8.31979 10.7143 8.71429V9C10.7143 9.39451 10.3945 9.71429 10 9.71429H9.28572C8.57566 9.71429 8 9.13865 8 8.42857V7.57143ZM12.4286 6.28571C11.8763 6.28571 11.4286 6.73343 11.4286 7.28571V7.99143V8.71429C11.4286 9.26657 11.8763 9.71429 12.4286 9.71429H13.7143V8.85714H12.4286C12.3497 8.85714 12.2857 8.79318 12.2857 8.71429V8.42H13.7143V7.56286H12.2857V7.28571C12.2857 7.20682 12.3497 7.14286 12.4286 7.14286H13.7143V6.28571H12.4286Z" fill="currentColor"/>
</svg>
