<svg width="16" height="16" viewBox="0 0 16 16" fill="none" xmlns="http://www.w3.org/2000/svg">
<path fill-rule="evenodd" clip-rule="evenodd" d="M2 3.4H14C14.5523 3.4 15 3.84771 15 4.4V11.6C15 12.1523 14.5523 12.6 14 12.6H2C1.44771 12.6 1 12.1523 1 11.6V4.4C1 3.84771 1.44771 3.4 2 3.4ZM0 4.4C0 3.29543 0.895432 2.4 2 2.4H14C15.1046 2.4 16 3.29543 16 4.4V11.6C16 12.7046 15.1046 13.6 14 13.6H2C0.895432 13.6 0 12.7046 0 11.6V4.4ZM11.6 10.4V8.93473C12.073 9.15942 12.4 9.64152 12.4 10.2V10.4H13.6V10.2C13.6 9.57133 13.3769 8.99478 13.0055 8.54521C13.3651 8.29182 13.6 7.87334 13.6 7.4V7C13.6 6.2268 12.9732 5.6 12.2 5.6H11.6H11H10.4V6.2V8.2V8.8V10.4H11.6ZM12.2 7.6H11.6V6.8H12.2C12.3105 6.8 12.4 6.88954 12.4 7V7.4C12.4 7.51046 12.3105 7.6 12.2 7.6ZM3.6 8.8V10.4H2.4V8.8V8.2V6.2V5.6H3H3.6H4.2C4.9732 5.6 5.6 6.2268 5.6 7V7.4C5.6 8.1732 4.9732 8.8 4.2 8.8H3.6ZM3.6 7.6H4.2C4.31046 7.6 4.4 7.51046 4.4 7.4V7C4.4 6.88954 4.31046 6.8 4.2 6.8H3.6V7.6ZM7.64 10.4V8.8H8.24C9.0132 8.8 9.64 8.1732 9.64 7.4V7C9.64 6.2268 9.0132 5.6 8.24 5.6H7.64H7.04H6.44V6.2V8.2V8.8V10.4H7.64ZM8.24 7.6H7.64V6.8H8.24C8.35048 6.8 8.44 6.88954 8.44 7V7.4C8.44 7.51046 8.35048 7.6 8.24 7.6Z" fill="currentColor"/>
</svg>
