<svg width="16" height="16" viewBox="0 0 16 16" fill="none" xmlns="http://www.w3.org/2000/svg">
<path fill-rule="evenodd" clip-rule="evenodd" d="M14.4615 4.46154H1.53846C1.11362 4.46154 0.769231 4.80593 0.769231 5.23077V10.7692C0.769231 11.1941 1.11362 11.5385 1.53846 11.5385H14.4615C14.8864 11.5385 15.2308 11.1941 15.2308 10.7692V5.23077C15.2308 4.80593 14.8864 4.46154 14.4615 4.46154ZM1.53846 3.69231C0.688794 3.69231 0 4.3811 0 5.23077V10.7692C0 11.6189 0.688794 12.3077 1.53846 12.3077H14.4615C15.3112 12.3077 16 11.6189 16 10.7692V5.23077C16 4.3811 15.3112 3.69231 14.4615 3.69231H1.53846ZM9.23077 7.07692H8.46154V6.15385H9.69231H10.9231V7.07692H10.1538V9.84615H9.23077V7.07692ZM5.23077 7.07692H6V9.84615H6.92308V7.07692H7.69231V6.15385H6.46154H5.23077V7.07692ZM1.84615 9.84615V6.15385H2.76923V7.53846H3.38462V6.15385H4.30769V9.84615H3.38462V8.46154H2.76923V9.84615H1.84615ZM12.6154 9.84615V8.61538H13.0769C13.6717 8.61538 14.1538 8.13323 14.1538 7.53846V7.23077C14.1538 6.636 13.6717 6.15385 13.0769 6.15385H12.6154H12.1538H11.6923V6.61538V8.15385V8.61538V9.84615H12.6154ZM13.0769 7.69231H12.6154V7.07692H13.0769C13.1619 7.07692 13.2308 7.1458 13.2308 7.23077V7.53846C13.2308 7.62343 13.1619 7.69231 13.0769 7.69231Z" fill="currentColor"/>
</svg>
