<svg width="16" height="16" viewBox="0 0 16 16" fill="none" xmlns="http://www.w3.org/2000/svg">
<path fill-rule="evenodd" clip-rule="evenodd" d="M2 3.4H14C14.5523 3.4 15 3.84771 15 4.4V11.6C15 12.1523 14.5523 12.6 14 12.6H2C1.44771 12.6 1 12.1523 1 11.6V4.4C1 3.84771 1.44771 3.4 2 3.4ZM0 4.4C0 3.29543 0.895432 2.4 2 2.4H14C15.1046 2.4 16 3.29543 16 4.4V11.6C16 12.7046 15.1046 13.6 14 13.6H2C0.895432 13.6 0 12.7046 0 11.6V4.4ZM4.8 5.6C3.80589 5.6 3 6.40589 3 7.4V8.6C3 9.59411 3.80589 10.4 4.8 10.4H5.8C6.35229 10.4 6.8 9.95232 6.8 9.4V9C6.8 8.44771 6.35229 8 5.8 8H5.2V9.2H4.8C4.46863 9.2 4.2 8.93137 4.2 8.6V7.4C4.2 7.06863 4.46863 6.8 4.8 6.8H5.2C5.42091 6.8 5.6 6.97909 5.6 7.2H6.8C6.8 6.31634 6.08366 5.6 5.2 5.6H4.8ZM9 10.4H7.8V5.6H9V10.4ZM10.6 5.6H10V6.2V8.2V10.4H11.2V8.8H13.2V7.6H11.2V6.8H13.2V5.6H10.6Z" fill="currentColor"/>
</svg>
