<svg width="16" height="16" viewBox="0 0 16 16" fill="none" xmlns="http://www.w3.org/2000/svg">
<path fill-rule="evenodd" clip-rule="evenodd" d="M14 3.4H2C1.44771 3.4 1 3.84771 1 4.4V11.6C1 12.1523 1.44771 12.6 2 12.6H14C14.5523 12.6 15 12.1523 15 11.6V4.4C15 3.84771 14.5523 3.4 14 3.4ZM2 2.4C0.895432 2.4 0 3.29543 0 4.4V11.6C0 12.7046 0.895432 13.6 2 13.6H14C15.1046 13.6 16 12.7046 16 11.6V4.4C16 3.29543 15.1046 2.4 14 2.4H2ZM4.4 8V7C4.4 6.88954 4.48954 6.8 4.6 6.8H5C5.11046 6.8 5.2 6.88954 5.2 7V8H4.4ZM4.4 9.2V10.4H3.2V7C3.2 6.2268 3.8268 5.6 4.6 5.6H5C5.7732 5.6 6.4 6.2268 6.4 7V10.4H5.2V9.2H4.4ZM8.6 8.8V10.4H7.4V8.8V8.2V6.2V5.6H8H8.6H9.2C9.9732 5.6 10.6 6.2268 10.6 7V7.4C10.6 8.1732 9.9732 8.8 9.2 8.8H8.6ZM8.6 7.6H9.2C9.31048 7.6 9.4 7.51046 9.4 7.4V7C9.4 6.88954 9.31048 6.8 9.2 6.8H8.6V7.6ZM11.6 10.4H12.8V5.6H11.6V10.4Z" fill="currentColor"/>
</svg>
