<svg width="16" height="16" viewBox="0 0 16 16" fill="none" xmlns="http://www.w3.org/2000/svg">
<path fill-rule="evenodd" clip-rule="evenodd" d="M2 3.4H14C14.5523 3.4 15 3.84771 15 4.4V11.6C15 12.1523 14.5523 12.6 14 12.6H2C1.44771 12.6 1 12.1523 1 11.6V4.4C1 3.84771 1.44771 3.4 2 3.4ZM0 4.4C0 3.29543 0.895432 2.4 2 2.4H14C15.1046 2.4 16 3.29543 16 4.4V11.6C16 12.7046 15.1046 13.6 14 13.6H2C0.895432 13.6 0 12.7046 0 11.6V4.4ZM4 8.9V5.6H5.2V8.9C5.2 9.7284 4.52842 10.4 3.7 10.4C2.87158 10.4 2.2 9.7284 2.2 8.9V8.6H3.4V8.9C3.4 9.06569 3.53431 9.2 3.7 9.2C3.86569 9.2 4 9.06569 4 8.9ZM7.4 8.8V10.4H6.2V8.8V8.2V6.2V5.6H6.8H7.4H8C8.7732 5.6 9.4 6.2268 9.4 7V7.4C9.4 8.1732 8.7732 8.8 8 8.8H7.4ZM7.4 7.6H8C8.11048 7.6 8.2 7.51046 8.2 7.4V7C8.2 6.88954 8.11048 6.8 8 6.8H7.4V7.6ZM11.8 5.6C10.8059 5.6 10 6.40589 10 7.4V8.6C10 9.59411 10.8059 10.4 11.8 10.4H12.8C13.3523 10.4 13.8 9.95232 13.8 9.4V9C13.8 8.44771 13.3523 8 12.8 8H12.2V9.2H11.8C11.4686 9.2 11.2 8.93137 11.2 8.6V7.4C11.2 7.06863 11.4686 6.8 11.8 6.8H12.2C12.4209 6.8 12.6 6.97909 12.6 7.2H13.8C13.8 6.31634 13.0837 5.6 12.2 5.6H11.8Z" fill="#666666"/>
</svg>
