<svg width="16" height="16" viewBox="0 0 16 16" fill="none" xmlns="http://www.w3.org/2000/svg">
<path d="M8 15.25C12.0041 15.25 15.25 12.0041 15.25 8C15.25 3.99594 12.0041 0.75 8 0.75C3.99594 0.75 0.75 3.99594 0.75 8C0.75 12.0041 3.99594 15.25 8 15.25Z" stroke="#666666" stroke-width="1.5" stroke-linecap="round" stroke-linejoin="round"/>
<path opacity="0.33" fill-rule="evenodd" clip-rule="evenodd" d="M5 1H7V3H5V1ZM5 5V3H3V5H1V7H3V9H1V11H3V13H5V15H7V13H9V15H11V13H13V11H15V9H13V7H15V5H13V3H11V1H9V3H7V5H5ZM5 7H3V5H5V7ZM7 7V5H9V7H7ZM7 9V7H5V9H3V11H5V13H7V11H9V13H11V11H13V9H11V7H13V5H11V3H9V5H11V7H9V9H7ZM9 9H11V11H9V9ZM7 9V11H5V9H7Z" fill="currentColor"/>
</svg>
