<svg width="16" height="16" viewBox="0 0 16 16" fill="none" xmlns="http://www.w3.org/2000/svg">
<path d="M4.93939 2.99996L7.29294 0.646409C7.68346 0.255885 8.31663 0.255885 8.70715 0.646409L11.0607 2.99996L10.0001 4.06062L8.75016 2.81074V7.24996H13.1895L11.9395 5.99995L13.0002 4.93929L15.3537 7.29285C15.7442 7.68337 15.7442 8.31654 15.3537 8.70706L13.0002 11.0606L11.9395 9.99995L13.1895 8.74996H8.75016V13.1892L10.0001 11.9393L11.0607 13L8.70715 15.3535C8.31663 15.744 7.68346 15.744 7.29294 15.3535L4.93939 13L6.00005 11.9393L7.25016 13.1894V8.74996H2.81075L4.06074 9.99995L3.00008 11.0606L0.646531 8.70706C0.256007 8.31654 0.256007 7.68337 0.646531 7.29285L3.00008 4.93929L4.06074 5.99995L2.81074 7.24996H7.25016V2.81051L6.00005 4.06062L4.93939 2.99996Z" fill="currentColor"/>
</svg>
