<svg width="16" height="16" viewBox="0 0 16 16" fill="none" xmlns="http://www.w3.org/2000/svg">
<path fill-rule="evenodd" clip-rule="evenodd" d="M0.125 8.00013C0.125 3.65099 3.65071 0.125275 7.99986 0.125275L8.01478 0.125295L8.02713 0.125312H8.02945C10.0341 0.132756 11.8627 0.889881 13.2486 2.12967C14.859 3.57057 15.875 5.66758 15.875 8.00052C15.875 10.3338 14.859 12.4298 13.2483 13.8708C11.8556 15.1162 10.0159 15.875 7.99996 15.875C7.8732 15.875 7.74848 15.8717 7.62533 15.8659C3.44987 15.6703 0.125 12.2236 0.125 8.00013ZM7.99986 1.37527C4.34107 1.37527 1.375 4.34134 1.375 8.00013C1.375 11.5529 4.17208 14.4527 7.68383 14.6172C7.79003 14.6222 7.89521 14.625 7.99996 14.625C8.03508 14.625 8.07013 14.6248 8.10511 14.6242C6.92488 14.233 5.89651 13.4732 5.12731 12.4785C4.22582 11.4082 3.67057 9.87053 3.63259 8.18487L3.63227 8.17079L3.63243 7.82937V7.8153C3.67039 6.12972 4.22577 4.59173 5.12713 3.52164C5.89634 2.52712 6.92457 1.76729 8.10461 1.37607C8.07821 1.37566 8.05178 1.37541 8.0253 1.37531C8.02514 1.37531 8.02546 1.37531 8.0253 1.37531L8.01221 1.37529L7.99986 1.37527ZM12.4489 3.09168C11.7037 2.60681 10.8426 2.33225 9.92617 2.33225C9.79095 2.33225 9.65684 2.33824 9.52406 2.35003C10.2164 2.6668 10.8168 3.19946 11.2874 3.85771C12.063 4.94254 12.5232 6.40922 12.5232 8.00047C12.5232 9.59172 12.063 11.0584 11.2874 12.1432C10.8171 12.801 10.2171 13.3334 9.52546 13.6502C9.65785 13.662 9.79155 13.6679 9.92637 13.6679C10.8425 13.6679 11.7034 13.3934 12.4486 12.9088C13.7861 11.6958 14.625 9.9467 14.625 8.00052C14.625 6.05449 13.786 4.30454 12.4489 3.09168ZM8.07684 3.28078C7.36237 3.28078 6.66592 3.63895 6.09039 4.31838C5.39546 5.13867 4.9164 6.39136 4.88243 7.83656V8.16361C4.91643 9.60881 5.39544 10.8612 6.09057 11.6818C6.66612 12.3614 7.36266 12.7202 8.07684 12.7202C8.87815 12.7202 9.66229 12.267 10.2705 11.4162C10.878 10.5666 11.2732 9.36097 11.2732 8.00047C11.2732 6.63995 10.878 5.43429 10.2706 4.58471C9.66236 3.73398 8.87822 3.28078 8.07684 3.28078Z" fill="#666666"/>
</svg>
