<svg width="16" height="16" viewBox="0 0 16 16" fill="none" xmlns="http://www.w3.org/2000/svg">
<path fill-rule="evenodd" clip-rule="evenodd" d="M6.02735 1.59423C6.40095 0.847013 7.16465 0.375 8.00007 0.375C8.83548 0.375 9.59919 0.847012 9.97279 1.59423L9.97626 1.60118L9.97957 1.60822L12.1996 6.3389C12.6942 5.6993 13.5488 5.39605 14.3698 5.64152C15.4353 5.96006 16.0408 7.08201 15.7222 8.14746C15.4295 9.12656 14.9252 10.0005 14.2661 10.7425L15.0628 12.4402C15.6018 13.5283 15.1597 14.8483 14.0727 15.3918C12.9832 15.9366 11.6583 15.4949 11.1136 14.4054L11.1089 14.396L11.1045 14.3864L10.5065 13.0821C9.70961 13.3169 8.86691 13.4412 8.00769 13.4412C7.1863 13.4412 6.38368 13.329 5.62305 13.1167L5.07279 14.3761L5.06632 14.391L5.05908 14.4054C4.51434 15.4949 3.18951 15.9366 2.1 15.3918C1.01432 14.8489 0.572011 13.5315 1.10793 12.4442L1.83696 10.8361C1.47108 10.4376 1.15001 9.99969 0.882332 9.52681C0.33453 8.55904 0.674974 7.33044 1.64274 6.78263C2.2943 6.41382 3.06409 6.44763 3.66476 6.80444L6.01713 1.61567L6.02204 1.60486L6.02735 1.59423ZM4.57243 7.82964C4.91521 8.29797 5.42329 8.71478 6.05614 9.00321L7.42734 5.86472L7.98634 4.58526L8.56821 5.85449L10.0033 8.98483C10.6452 8.68289 11.1512 8.24741 11.4871 7.76297L8.85168 2.14716C8.68873 1.82694 8.35973 1.625 8.00007 1.625C7.6416 1.625 7.3136 1.82559 7.15008 2.14397L4.57243 7.82964ZM8.7968 9.3526L8.01379 7.64463L7.26481 9.35895C7.50296 9.39492 7.751 9.41407 8.00769 9.41407C8.28196 9.41407 8.54538 9.39265 8.7968 9.3526ZM2.80747 11.7227L2.24189 12.9702L2.23699 12.9811L2.23168 12.9917C1.99566 13.4637 2.187 14.0378 2.65903 14.2738C3.12681 14.5077 3.69474 14.3219 3.93461 13.859L4.44413 12.6928C3.85689 12.4314 3.30694 12.1057 2.80747 11.7227ZM11.6797 12.6416L12.2358 13.8547C12.4744 14.3207 13.0444 14.5084 13.5137 14.2738C13.9857 14.0378 14.177 13.4637 13.941 12.9917L13.9375 12.9847L13.9342 12.9777L13.3086 11.6446C12.8128 12.0366 12.265 12.3712 11.6797 12.6416ZM12.9507 7.31886C13.0898 6.85366 13.5797 6.5893 14.0449 6.72838C14.5101 6.86746 14.7744 7.35732 14.6354 7.82252C13.8429 10.473 11.1129 12.3068 8.00769 12.3068C5.36396 12.3068 3.01149 10.9854 1.86954 8.968C1.63036 8.54545 1.779 8.00902 2.20154 7.76984C2.62409 7.53066 3.16052 7.6793 3.3997 8.10184C4.196 9.5086 5.92626 10.5485 8.00769 10.5485C10.4735 10.5485 12.418 9.10076 12.9507 7.31886Z" fill="currentColor"/>
</svg>
