<svg width="16" height="16" viewBox="0 0 16 16" fill="none" xmlns="http://www.w3.org/2000/svg">
<path fill-rule="evenodd" clip-rule="evenodd" d="M13.0138 8C13.0138 10.4853 10.999 12.5 8.51379 12.5C6.02851 12.5 4.01379 10.4853 4.01379 8C4.01379 5.51472 6.02851 3.5 8.51379 3.5C10.999 3.5 13.0138 5.51472 13.0138 8ZM14.5138 8C14.5138 11.3137 11.8275 14 8.51379 14C5.20008 14 2.51379 11.3137 2.51379 8C2.51379 4.68629 5.20008 2 8.51379 2C11.8275 2 14.5138 4.68629 14.5138 8ZM9.26379 5.75V5H7.76379V5.75V8V8.75H9.26379V8V5.75Z" fill="currentColor"/>
</svg>
