<svg width="16" height="16" viewBox="0 0 16 16" fill="none" xmlns="http://www.w3.org/2000/svg">
<path fill-rule="evenodd" clip-rule="evenodd" d="M11.25 9.75C12.2165 9.75 13 8.9665 13 8C13 7.0335 12.2165 6.25 11.25 6.25C10.2835 6.25 9.5 7.0335 9.5 8C9.5 8.9665 10.2835 9.75 11.25 9.75ZM6.75 12.5C7.7165 12.5 8.5 11.7165 8.5 10.75C8.5 9.7835 7.7165 9 6.75 9C5.7835 9 5 9.7835 5 10.75C5 11.7165 5.7835 12.5 6.75 12.5Z" fill="#666666"/>
<path opacity="0.25" d="M6.75 7C7.7165 7 8.5 6.2165 8.5 5.25C8.5 4.2835 7.7165 3.5 6.75 3.5C5.7835 3.5 5 4.2835 5 5.25C5 6.2165 5.7835 7 6.75 7Z" fill="#666666"/>
</svg>
