<svg width="16" height="16" viewBox="0 0 16 16" fill="none" xmlns="http://www.w3.org/2000/svg">
<path fill-rule="evenodd" clip-rule="evenodd" d="M14.8661 14.7041C13.9132 14.5727 12.9575 14.4687 12.0001 14.3923V12.8876C12.8348 12.9523 13.6684 13.0373 14.5 13.1426L14.5001 9.00003H16.0001L16 14V14.8605L15.1476 14.7429L14.8661 14.7041ZM16.0001 7.00003V2.49996V1.6394L15.1476 1.75699L14.8661 1.79581C13.9132 1.92725 12.9575 2.03119 12.0001 2.10765V3.61228C12.8348 3.54757 13.6684 3.46256 14.5001 3.35727V7.00003H16.0001ZM10 2.22729V3.72844C8.66721 3.77999 7.33288 3.77999 6.00004 3.72844V2.22729C7.33285 2.28037 8.66724 2.28037 10 2.22729ZM10 14.2726V12.7715C8.66721 12.7199 7.33288 12.7199 6.00004 12.7715V14.2726C7.33285 14.2195 8.66724 14.2195 10 14.2726ZM4.00004 14.3923C3.04264 14.4687 2.08689 14.5727 1.13397 14.7041L0.852481 14.7429L0 14.8605L3.1591e-06 14L2.1403e-05 9.00003H1.50002L1.50001 13.1426C2.33168 13.0373 3.16527 12.9523 4.00004 12.8876V14.3923ZM1.50003 7.00003L1.50004 3.35727C2.3317 3.46256 3.16528 3.54757 4.00004 3.61228V2.10765C3.04266 2.03119 2.08692 1.92725 1.13401 1.79581L0.852523 1.75699L4.82798e-05 1.6394L4.51208e-05 2.49995L2.87007e-05 7.00003H1.50003Z" fill="#666666"/>
</svg>
