<svg width="17" height="16" viewBox="0 0 17 16" fill="none" xmlns="http://www.w3.org/2000/svg">
<path fill-rule="evenodd" clip-rule="evenodd" d="M0.509496 2.06228L1.07005 2.56055L14.5701 14.5605L15.1306 15.0588L16.1272 13.9377L15.5666 13.4394L13.7583 11.832L16.6367 8.48938V7.51059L13.4333 3.79053C10.9626 0.921301 6.68249 0.684726 3.91214 3.07992L2.0666 1.43943L1.50604 0.941162L0.509496 2.06228ZM15.0786 7.99998L12.6371 10.8354L10.9883 9.36978C11.5674 8.24171 11.3845 6.82347 10.4397 5.87865C9.4079 4.8469 7.81162 4.72376 6.64512 5.50923L5.04587 4.08767C7.20124 2.36327 10.4207 2.59076 12.2967 4.76931L15.0786 7.99998ZM7.84538 6.57613L9.78765 8.30259C9.88549 7.82531 9.74927 7.30959 9.37899 6.93931C8.96414 6.52446 8.36676 6.4034 7.84538 6.57613ZM0 7.51059L1.72222 5.5106L2.85887 6.48938L1.55807 7.99998L4.34004 11.2307C5.84689 12.9805 8.22137 13.4734 10.2181 12.7017L10.7589 14.1008C8.19844 15.0904 5.14352 14.4625 3.20339 12.2094L0 8.48938V7.51059Z" fill="currentColor"/>
</svg>
