<svg width="17" height="16" viewBox="0 0 17 16" fill="none" xmlns="http://www.w3.org/2000/svg">
<path fill-rule="evenodd" clip-rule="evenodd" d="M6.8324 3.15793C7.80053 2.87411 8.83612 2.87411 9.80425 3.15793L10.2262 1.71851C8.98258 1.35392 7.65407 1.35392 6.41042 1.71851L6.8324 3.15793ZM11.1664 3.78166C11.5762 4.04682 11.9577 4.37568 12.2967 4.76932L13.3644 6.00934L14.5011 5.03056L13.4333 3.79054C13.0002 3.28761 12.5102 2.86449 11.9812 2.52224L11.1664 3.78166ZM4.34004 4.76932C4.67901 4.37568 5.06045 4.04682 5.47031 3.78166L4.65553 2.52225C4.12651 2.86449 3.63646 3.28761 3.20339 3.79054L2.13559 5.03056L3.27225 6.00934L4.34004 4.76932ZM14.4322 7.24936L15.0786 7.99999L14.4322 8.75062L15.5689 9.72941L16.6367 8.48938V7.5106L15.5689 6.27058L14.4322 7.24936ZM2.20445 7.24936L1.55807 7.99999L2.20445 8.75062L1.0678 9.72941L0 8.48938V7.5106L1.0678 6.27058L2.20445 7.24936ZM13.3645 9.99064L12.2967 11.2307C11.9577 11.6243 11.5762 11.9532 11.1664 12.2183L11.9812 13.4777C12.5102 13.1355 13.0002 12.7124 13.4333 12.2094L14.5011 10.9694L13.3645 9.99064ZM4.34004 11.2307L3.27225 9.99064L2.13559 10.9694L3.20339 12.2094C3.63646 12.7124 4.12651 13.1355 4.65553 13.4777L5.47031 12.2183C5.06046 11.9532 4.67901 11.6243 4.34004 11.2307ZM10.2262 14.2815L9.80425 12.8421C8.83612 13.1259 7.80053 13.1259 6.83241 12.8421L6.41042 14.2815C7.65408 14.6461 8.98258 14.6461 10.2262 14.2815ZM6.81833 7.99999C6.81833 7.17157 7.4899 6.49999 8.31833 6.49999C9.14675 6.49999 9.81833 7.17157 9.81833 7.99999C9.81833 8.82842 9.14675 9.49999 8.31833 9.49999C7.4899 9.49999 6.81833 8.82842 6.81833 7.99999ZM8.31833 4.99999C6.66147 4.99999 5.31833 6.34314 5.31833 7.99999C5.31833 9.65685 6.66147 11 8.31833 11C9.97518 11 11.3184 9.65685 11.3184 7.99999C11.3184 6.34314 9.97518 4.99999 8.31833 4.99999Z" fill="#666666"/>
</svg>
