<svg width="17" height="16" viewBox="0 0 17 16" fill="none" xmlns="http://www.w3.org/2000/svg">
<path fill-rule="evenodd" clip-rule="evenodd" d="M4.34004 4.76932C6.43455 2.33698 10.2021 2.33698 12.2967 4.76932L15.0786 7.99999L12.2967 11.2307C10.2021 13.663 6.43456 13.663 4.34004 11.2307L1.55807 7.99999L4.34004 4.76932ZM13.4333 3.79054C10.7404 0.663243 5.89633 0.663246 3.20339 3.79054L0 7.5106V8.48938L3.20339 12.2094C5.89633 15.3367 10.7404 15.3367 13.4333 12.2094L16.6367 8.48938V7.5106L13.4333 3.79054ZM6.81833 7.99999C6.81833 7.17157 7.4899 6.49999 8.31833 6.49999C9.14675 6.49999 9.81833 7.17157 9.81833 7.99999C9.81833 8.82842 9.14675 9.49999 8.31833 9.49999C7.4899 9.49999 6.81833 8.82842 6.81833 7.99999ZM8.31833 4.99999C6.66147 4.99999 5.31833 6.34314 5.31833 7.99999C5.31833 9.65685 6.66147 11 8.31833 11C9.97518 11 11.3184 9.65685 11.3184 7.99999C11.3184 6.34314 9.97518 4.99999 8.31833 4.99999Z" fill="#666666"/>
</svg>
