<svg width="16" height="16" viewBox="0 0 16 16" fill="none" xmlns="http://www.w3.org/2000/svg">
<path fill-rule="evenodd" clip-rule="evenodd" d="M0 7.94519C0 5.05063 1.75642 2.56712 4.26177 1.50122H1.75H1V0.0012207H1.75H5.92462C6.47691 0.0012207 6.92462 0.448936 6.92462 1.00122V5.17584V5.92584H5.42462V5.17584V2.67394C3.15496 3.35116 1.5 5.45539 1.5 7.94519C1.5 10.9828 3.96243 13.4452 7 13.4452H7.75V14.9452H7C3.13401 14.9452 0 11.8112 0 7.94519ZM14.37 5.62756C13.4739 5.62756 12.7475 6.35398 12.7475 7.25006V9.38006C12.7475 10.2762 13.4739 11.0026 14.37 11.0026C15.2661 11.0026 15.9925 10.2762 15.9925 9.38006V7.25006C15.9925 6.35398 15.2661 5.62756 14.37 5.62756ZM13.9925 7.25006C13.9925 7.04157 14.1615 6.87256 14.37 6.87256C14.5785 6.87256 14.7475 7.04157 14.7475 7.25006V9.38006C14.7475 9.58855 14.5785 9.75756 14.37 9.75756C14.1615 9.75756 13.9925 9.58855 13.9925 9.38006V7.25006ZM11.2425 6.37305C11.2425 6.18136 11.1542 6.00036 11.0031 5.88239C10.852 5.76442 10.655 5.72264 10.469 5.76913L9.46902 6.01913L8.8651 6.17011L9.16706 7.37794L9.77097 7.22696L9.99749 7.17033V9.75055H9.62H8.99749V10.9956H9.62H10.62H11.62H12.2425V9.75055H11.62H11.2425V6.37305Z" fill="#666666"/>
</svg>
