<svg width="16" height="16" viewBox="0 0 16 16" fill="none" xmlns="http://www.w3.org/2000/svg">
<path d="M15.25 8V2.25C15.25 1.42157 14.5784 0.75 13.75 0.75H2.25C1.42157 0.75 0.75 1.42157 0.75 2.25V13.75C0.75 14.5784 1.42157 15.25 2.25 15.25H8" fill="black"/>
<path d="M15.25 8V2.25C15.25 1.42157 14.5784 0.75 13.75 0.75H2.25C1.42157 0.75 0.75 1.42157 0.75 2.25V13.75C0.75 14.5784 1.42157 15.25 2.25 15.25H8" stroke="black" stroke-width="1.5" stroke-linejoin="round"/>
<path d="M9.24618 4.25C8.00565 4.25 7 5.25565 7 6.49618V9.50439C7 10.7446 5.99461 11.75 4.75439 11.75" fill="black"/>
<path d="M9.24618 4.25C8.00565 4.25 7 5.25565 7 6.49618V9.50439C7 10.7446 5.99461 11.75 4.75439 11.75" stroke="black" stroke-width="1.5" stroke-linecap="square" stroke-linejoin="round"/>
<path d="M5.25 7.75H8.75H5.25Z" fill="black"/>
<path d="M5.25 7.75H8.75" stroke="black" stroke-width="1.5" stroke-linecap="square" stroke-linejoin="round"/>
<path d="M15.7247 11.3855L14.5481 10.0481H10.4519L9.27523 11.3855C8.92446 11.7841 8.94646 12.3874 9.32532 12.7595L12.5 15.8773L15.6746 12.7595C16.0534 12.3874 16.0754 11.7842 15.7247 11.3855Z" fill="#CA2A30"/>
<path fill-rule="evenodd" clip-rule="evenodd" d="M12.4659 9.48831C13.6684 9.49258 14.8002 9.91649 14.7971 10.5166C14.7939 11.1166 13.7445 11.5332 12.5422 11.5287C11.3399 11.5242 10.1982 11.1295 10.2015 10.5296C10.2043 9.92962 11.2636 9.48383 12.4659 9.48831Z" fill="#F87274"/>
</svg>
