<svg width="16" height="16" viewBox="0 0 16 16" fill="none" xmlns="http://www.w3.org/2000/svg">
<path d="M15.25 8V2.25C15.25 1.42157 14.5784 0.75 13.75 0.75H2.25C1.42157 0.75 0.75 1.42157 0.75 2.25V13.75C0.75 14.5784 1.42157 15.25 2.25 15.25H8" stroke="black" stroke-width="1.5" stroke-linejoin="round"/>
<path d="M9.24618 4.25C8.00565 4.25 7 5.25565 7 6.49618V9.50439C7 10.7446 5.99461 11.75 4.75439 11.75" fill="black"/>
<path d="M9.24618 4.25C8.00565 4.25 7 5.25565 7 6.49618V9.50439C7 10.7446 5.99461 11.75 4.75439 11.75" stroke="black" stroke-width="1.5" stroke-linecap="square" stroke-linejoin="round"/>
<path d="M5.25 7.75H8.75H5.25Z" fill="black"/>
<path d="M5.25 7.75H8.75" stroke="black" stroke-width="1.5" stroke-linecap="square" stroke-linejoin="round"/>
<path d="M13 9L16 10.75V14.25L13 16L10 14.25V10.75L13 9Z" fill="#46A758"/>
</svg>
