<svg width="17" height="16" viewBox="0 0 17 16" fill="none" xmlns="http://www.w3.org/2000/svg">
<path fill-rule="evenodd" clip-rule="evenodd" d="M12.5607 6.56062L8.06066 2.06062L3.56066 6.56062V13.5H6.06066V11C6.06066 9.89539 6.95609 8.99996 8.06066 8.99996C9.16523 8.99996 10.0607 9.89539 10.0607 11V13.5H12.5607V6.56062ZM13.8407 5.71933L8.76776 0.646409C8.37724 0.255886 7.74407 0.255883 7.35355 0.646409L2.28052 5.71944C2.28039 5.71957 2.28064 5.71932 2.28052 5.71944L0.53033 7.46963L0 7.99996L1.06066 9.06062L1.59099 8.53029L2.06066 8.06062V14.25V15H2.81066H6.06066H7.56066H8.56066H10.0607H13.3107H14.0607V14.25V8.06062L14.5304 8.53029L15.0607 9.06062L16.1214 7.99996L15.591 7.46963L13.8407 5.71933C13.8409 5.71953 13.8405 5.71913 13.8407 5.71933ZM8.56066 11V13.5H7.56066V11C7.56066 10.7238 7.78451 10.5 8.06066 10.5C8.3368 10.5 8.56066 10.7238 8.56066 11Z" fill="#666666"/>
</svg>
