<svg width="17" height="16" viewBox="0 0 17 16" fill="none" xmlns="http://www.w3.org/2000/svg">
<path fill-rule="evenodd" clip-rule="evenodd" d="M14.5607 2.5H1.56067V9.18933L3.03033 7.71967L3.25 7.5H3.56066H6.69068H7L7.03033 7.46967L10.5304 3.96967H11.591L14.5607 6.93934V2.5ZM8.06133 8.55999L9.59101 10.0897L10.1214 10.62L9.06068 11.6807L8.53035 11.1503L6.38002 9H3.87132L1.59099 11.2803L1.56067 11.3106V12.5C1.56067 13.0523 2.00839 13.5 2.56067 13.5H13.5607C14.113 13.5 14.5607 13.0523 14.5607 12.5V9.06066L11.0607 5.56066L8.09099 8.53033L8.06133 8.55999ZM0.060673 10.8107V12.5C0.060673 13.8807 1.17996 15 2.56067 15H13.5607C14.9414 15 16.0607 13.8807 16.0607 12.5V9.56066L16.6214 9L16.091 8.46967L16.0607 8.43934V2.5V1H14.5607H1.56067H0.060673V2.5V10.6893L0 10.75L0.060673 10.8107Z" fill="#666666"/>
</svg>
