<svg width="16" height="16" viewBox="0 0 16 16" fill="none" xmlns="http://www.w3.org/2000/svg">
<path fill-rule="evenodd" clip-rule="evenodd" d="M10.6789 2.05378L9.81674 5.56255L13.3254 6.4247L14.1876 2.91593L10.6789 2.05378ZM10.3829 0.436426C9.93954 0.327486 9.49183 0.59858 9.38289 1.04193L8.1994 5.85853C8.09046 6.30188 8.36156 6.7496 8.80491 6.85854L13.6214 8.04205C14.0648 8.15099 14.5125 7.8799 14.6214 7.43654L15.8049 2.61994C15.9139 2.17659 15.6428 1.72887 15.1994 1.61993L10.3829 0.436426ZM9.5 14.5C10.6046 14.5 11.5 13.6046 11.5 12.5C11.5 11.3955 10.6046 10.5 9.5 10.5C8.39543 10.5 7.5 11.3955 7.5 12.5C7.5 13.6046 8.39543 14.5 9.5 14.5ZM9.5 16C11.433 16 13 14.433 13 12.5C13 10.567 11.433 9.00004 9.5 9.00004C7.567 9.00004 6 10.567 6 12.5C6 14.433 7.567 16 9.5 16ZM2.93142 5.14833L5.6158 7.51283L2.25717 8.66149L2.93142 5.14833ZM0.467677 10.0272C0.391569 10.4238 0.77226 10.7546 1.15433 10.624L7.68942 8.38894C8.07149 8.25827 8.16986 7.7636 7.86685 7.4967L2.64368 2.89595C2.33833 2.62699 1.8563 2.79184 1.7796 3.19147L0.467677 10.0272Z" fill="currentColor"/>
</svg>
