<svg width="16" height="16" viewBox="0 0 16 16" fill="none" xmlns="http://www.w3.org/2000/svg">
<mask id="mask0_1_1308" style="mask-type:luminance" maskUnits="userSpaceOnUse" x="0" y="0" width="16" height="16">
<path d="M0 0V16H16V0H0Z" fill="white"/>
</mask>
<g mask="url(#mask0_1_1308)">
<path fill-rule="evenodd" clip-rule="evenodd" d="M2.25 14.5H3.00004V16H2.25C1.00736 16 2.58901e-07 14.9926 1.29101e-07 13.75L0 12.5H1.5V13.75C1.5 14.1642 1.83579 14.5 2.25 14.5ZM4.00004 14.5H6.00004V16H4.00004V14.5ZM6.00004 3.38765e-07L4.00004 4.26187e-07V1.5H6.00004V3.38765e-07ZM1.50004 2.25007V3.50012H3.5724e-05L3.56694e-05 2.25007C3.56151e-05 1.00743 1.0074 7.30362e-05 2.25004 7.29819e-05L3.00004 7.29491e-05V1.50007H2.25004C1.83583 1.50007 1.50004 1.83586 1.50004 2.25007ZM1.50004 11.5V8.5H3.59426e-05L3.60737e-05 11.5H1.50004ZM1.50004 4.5V7.5H3.58989e-05L3.57677e-05 4.5H1.50004ZM6.50004 13.75C6.50004 14.9926 7.5074 16 8.75004 16H13.75C14.9927 16 16 14.9926 16 13.75V2.25C16 1.00736 14.9927 -5.4317e-08 13.75 0L8.75004 2.18558e-07C7.5074 2.72876e-07 6.50004 1.00736 6.50004 2.25V13.75ZM8.75004 14.5C8.33583 14.5 8.00004 14.1642 8.00004 13.75V2.25C8.00004 1.83579 8.33583 1.5 8.75004 1.5H13.75C14.1642 1.5 14.5 1.83579 14.5 2.25V13.75C14.5 14.1642 14.1642 14.5 13.75 14.5H8.75004Z" fill="#666666"/>
</g>
</svg>
