<svg width="16" height="16" viewBox="0 0 16 16" fill="none" xmlns="http://www.w3.org/2000/svg">
<mask id="mask0_1_1314" style="mask-type:luminance" maskUnits="userSpaceOnUse" x="0" y="0" width="16" height="16">
<path d="M0 0V16H16V0H0Z" fill="white"/>
</mask>
<g mask="url(#mask0_1_1314)">
<path d="M13.5 5C14.8807 5 16 3.88071 16 2.5C16 1.11929 14.8807 0 13.5 0C12.1193 0 11 1.11929 11 2.5C11 3.88071 12.1193 5 13.5 5Z" fill="#0068D6"/>
<path fill-rule="evenodd" clip-rule="evenodd" d="M3.00004 14.5H2.25C1.83579 14.5 1.5 14.1642 1.5 13.75V12.5H0L1.29101e-07 13.75C2.58901e-07 14.9926 1.00736 16 2.25 16H3.00004V14.5ZM6.00004 14.5H4.00004V16H6.00004V14.5ZM4.00004 2.78761e-07L6.00004 1.91339e-07V1.5H4.00004V2.78761e-07ZM1.50004 3.50012V2.25007C1.50004 1.83586 1.83583 1.50007 2.25004 1.50007H3.00004V7.28017e-05L2.25004 7.28345e-05C1.0074 7.28888e-05 3.56151e-05 1.00743 3.56694e-05 2.25007L3.5724e-05 3.50012H1.50004ZM1.50004 8.5V11.5H3.60737e-05L3.59426e-05 8.5H1.50004ZM1.50004 7.5V4.5H3.57677e-05L3.58989e-05 7.5H1.50004ZM8.75004 16C7.5074 16 6.50004 14.9926 6.50004 13.75V2.25C6.50004 1.00736 7.5074 1.2545e-07 8.75004 7.1132e-08L10.3773 0C10.0287 0.434825 9.76916 0.944022 9.62606 1.5H8.75004C8.33583 1.5 8.00004 1.83579 8.00004 2.25V13.75C8.00004 14.1642 8.33583 14.5 8.75004 14.5H13.75C14.1642 14.5 14.5 14.1642 14.5 13.75V6.37398C15.056 6.23087 15.5652 5.97124 16 5.62267V13.75C16 14.9926 14.9927 16 13.75 16H8.75004Z" fill="#666666"/>
</g>
</svg>
