<svg width="16" height="16" viewBox="0 0 16 16" fill="none" xmlns="http://www.w3.org/2000/svg">
<mask id="mask0_1_1531" style="mask-type:luminance" maskUnits="userSpaceOnUse" x="0" y="0" width="16" height="16">
<path d="M16 0H0V16H16V0Z" fill="white"/>
</mask>
<g mask="url(#mask0_1_1531)">
<path fill-rule="evenodd" clip-rule="evenodd" d="M4.5 1.93788C4.70129 1.82167 4.99472 1.78586 5.41315 1.91059C5.83298 2.03573 6.33139 2.31079 6.87627 2.73954C7.01136 2.84584 7.14803 2.96058 7.28573 3.08337C6.86217 3.53452 6.44239 4.04364 6.03752 4.60098C5.35243 4.67294 4.70164 4.78192 4.09916 4.92315C4.06167 4.7425 4.03064 4.56677 4.00612 4.39662C3.90725 3.71037 3.91825 3.1412 4.01979 2.71505C4.12099 2.29031 4.29871 2.0541 4.5 1.93788ZM7.49466 1.95367C7.66225 2.08554 7.83092 2.2281 7.99999 2.38073C8.16906 2.2281 8.33773 2.08554 8.50532 1.95367C9.10921 1.47848 9.71982 1.12555 10.3012 0.952266C10.8839 0.77856 11.4838 0.773864 12 1.07186C12.5161 1.36986 12.812 1.89175 12.953 2.48328C13.0936 3.07339 13.0932 3.77864 12.9836 4.53923C12.9532 4.7503 12.9141 4.96766 12.8665 5.1904C13.0832 5.2605 13.291 5.3353 13.489 5.4145C14.2025 5.69989 14.8134 6.05223 15.2542 6.46905C15.696 6.88686 16 7.40406 16 8.00006C16 8.59606 15.696 9.11325 15.2542 9.53107C14.8134 9.94789 14.2025 10.3003 13.489 10.5857C13.291 10.6649 13.0832 10.7397 12.8665 10.8098C12.9141 11.0325 12.9532 11.2499 12.9837 11.4609C13.0932 12.2215 13.0936 12.9268 12.953 13.5169C12.812 14.1084 12.5161 14.6303 12 14.9283C11.4839 15.2263 10.8839 15.2216 10.3012 15.0479C9.71984 14.8746 9.10923 14.5217 8.50534 14.0465C8.33775 13.9146 8.16906 13.772 7.99999 13.6194C7.83091 13.772 7.66223 13.9146 7.49464 14.0465C6.89075 14.5217 6.28014 14.8746 5.69879 15.0479C5.11605 15.2216 4.51613 15.2263 3.99998 14.9283C3.48383 14.6303 3.18794 14.1084 3.047 13.5169C2.9064 12.9268 2.90674 12.2215 3.01632 11.4609C3.04673 11.2499 3.08586 11.0325 3.13351 10.8098C2.91679 10.7396 2.709 10.6649 2.511 10.5857C1.79752 10.3003 1.18658 9.94789 0.745833 9.53107C0.304028 9.11325 0 8.59606 0 8.00006C0 7.40406 0.304028 6.88686 0.745833 6.46905C1.18658 6.05223 1.79752 5.69989 2.511 5.4145C2.709 5.3353 2.9168 5.2605 3.13352 5.1904C3.08587 4.96766 3.04675 4.7503 3.01634 4.53923C2.90676 3.77864 2.90642 3.07338 3.04702 2.48327C3.18796 1.89175 3.48385 1.36986 4 1.07186C4.51615 0.773862 5.11607 0.778559 5.69881 0.952265C6.28016 1.12555 6.89077 1.47847 7.49466 1.95367ZM7.36747 4.51031C7.57735 4.252 7.78881 4.00933 7.99999 3.78362C8.21117 4.00933 8.42263 4.252 8.63251 4.51031C8.42369 4.50352 8.21274 4.50006 8 4.50006C7.78725 4.50006 7.5763 4.50351 7.36747 4.51031ZM8.71425 3.08337C9.13781 3.53453 9.55759 4.04364 9.96246 4.60098C10.6475 4.67294 11.2983 4.78192 11.9008 4.92315C11.9383 4.7425 11.9693 4.56677 11.9939 4.39663C12.0927 3.71037 12.0817 3.1412 11.9802 2.71505C11.879 2.29031 11.7013 2.0541 11.5 1.93788C11.2987 1.82167 11.0053 1.78586 10.5868 1.91059C10.167 2.03574 9.66859 2.31079 9.12371 2.73954C8.98862 2.84584 8.85196 2.96058 8.71425 3.08337ZM8 5.50006C8.48433 5.50006 8.95638 5.51891 9.41188 5.55462C9.67056 5.93124 9.9229 6.33062 10.1651 6.75006C10.4072 7.1695 10.6269 7.58772 10.8237 8.00004C10.6269 8.41238 10.4072 8.83062 10.165 9.25006C9.92288 9.66951 9.67053 10.0689 9.41185 10.4455C8.95636 10.4813 8.48432 10.5001 8 10.5001C7.51567 10.5001 7.04363 10.4813 6.58813 10.4455C6.32945 10.0689 6.0771 9.66951 5.83494 9.25006C5.59277 8.83062 5.37306 8.41238 5.17624 8.00004C5.37306 7.58771 5.59275 7.1695 5.83492 6.75006C6.07708 6.33062 6.32942 5.93124 6.5881 5.55462C7.04361 5.5189 7.51566 5.50006 8 5.50006ZM11.0311 6.25006C11.1375 6.43429 11.2399 6.6187 11.3385 6.80293C11.4572 6.49203 11.5616 6.18758 11.6515 5.89184C11.3505 5.82181 11.0346 5.76002 10.706 5.70742C10.8163 5.88486 10.9247 6.06582 11.0311 6.25006ZM11.0311 9.75006C11.1374 9.56582 11.2399 9.3814 11.3385 9.19715C11.4572 9.50807 11.5617 9.81252 11.6515 10.1083C11.3505 10.1783 11.0346 10.2401 10.7059 10.2927C10.8162 10.1153 10.9247 9.93431 11.0311 9.75006ZM11.9249 8.00004C12.2051 8.62933 12.4362 9.24745 12.6151 9.83984C12.7903 9.78197 12.958 9.72098 13.1176 9.65714C13.7614 9.39964 14.2488 9.10553 14.5671 8.80452C14.8843 8.50451 15 8.23249 15 8.00006C15 7.76763 14.8843 7.49561 14.5671 7.1956C14.2488 6.89459 13.7614 6.60048 13.1176 6.34298C12.958 6.27913 12.7903 6.21814 12.6151 6.16028C12.4362 6.75266 12.2051 7.37075 11.9249 8.00004ZM9.96244 11.3992C10.6475 11.3272 11.2983 11.2182 11.9008 11.077C11.9383 11.2577 11.9694 11.4334 11.9939 11.6035C12.0928 12.2898 12.0817 12.859 11.9802 13.2851C11.879 13.7099 11.7013 13.9461 11.5 14.0623C11.2987 14.1785 11.0053 14.2143 10.5868 14.0896C10.167 13.9644 9.66861 13.6894 9.12373 13.2606C8.98863 13.1543 8.85196 13.0396 8.71424 12.9168C9.1378 12.4656 9.55758 11.9565 9.96244 11.3992ZM8.63249 11.4899C8.42262 11.7482 8.21116 11.9908 7.99999 12.2165C7.78881 11.9908 7.57737 11.7482 7.36749 11.4898C7.57631 11.4966 7.78726 11.5001 8 11.5001C8.21273 11.5001 8.42367 11.4966 8.63249 11.4899ZM4.96891 9.75006C5.07528 9.93431 5.18375 10.1153 5.29404 10.2927C4.9654 10.2401 4.64951 10.1783 4.34844 10.1083C4.43833 9.81252 4.54276 9.50806 4.66152 9.19714C4.76005 9.38139 4.86254 9.56581 4.96891 9.75006ZM6.03754 11.3992C5.35244 11.3272 4.70163 11.2182 4.09914 11.077C4.06165 11.2577 4.03062 11.4334 4.0061 11.6035C3.90723 12.2898 3.91823 12.859 4.01977 13.2851C4.12097 13.7099 4.29869 13.9461 4.49998 14.0623C4.70127 14.1785 4.9947 14.2143 5.41313 14.0896C5.83296 13.9644 6.33137 13.6894 6.87625 13.2606C7.01135 13.1543 7.14802 13.0396 7.28573 12.9168C6.86217 12.4656 6.4424 11.9565 6.03754 11.3992ZM4.07507 8.00004C3.79484 8.62933 3.56381 9.24744 3.38489 9.83984C3.20969 9.78197 3.042 9.72098 2.88239 9.65714C2.23864 9.39964 1.75123 9.10553 1.43294 8.80452C1.11571 8.50451 1 8.23249 1 8.00006C1 7.76763 1.11571 7.49561 1.43294 7.1956C1.75123 6.89459 2.23864 6.60048 2.88239 6.34298C3.042 6.27913 3.2097 6.21814 3.3849 6.16028C3.56383 6.75267 3.79484 7.37075 4.07507 8.00004ZM4.66152 6.80293C4.54277 6.49203 4.43835 6.18758 4.34846 5.89184C4.64952 5.82181 4.96539 5.76002 5.29402 5.70742C5.18373 5.88486 5.07526 6.06582 4.96889 6.25006C4.86253 6.43429 4.76005 6.6187 4.66152 6.80293ZM9.25 8.00006C9.25 8.69042 8.69036 9.25006 8 9.25006C7.30964 9.25006 6.75 8.69042 6.75 8.00006C6.75 7.30971 7.30964 6.75006 8 6.75006C8.69036 6.75006 9.25 7.30971 9.25 8.00006Z" fill="#149ECA"/>
</g>
</svg>
