<svg width="16" height="16" viewBox="0 0 16 16" fill="none" xmlns="http://www.w3.org/2000/svg">
<mask id="mask0_1_1681" style="mask-type:luminance" maskUnits="userSpaceOnUse" x="0" y="0" width="16" height="16">
<path d="M16 0H0V16H16V0Z" fill="white"/>
</mask>
<g mask="url(#mask0_1_1681)">
<path d="M15.5957 2.3229L8.41532 15.1627C8.26707 15.4278 7.88619 15.4294 7.73571 15.1656L0.41293 2.32414C0.248995 2.03666 0.494822 1.68844 0.820594 1.74667L8.00869 3.0315C8.05454 3.03969 8.10149 3.03962 8.14734 3.03126L15.1851 1.74851C15.5098 1.68933 15.7568 2.03486 15.5957 2.3229Z" fill="url(#paint0_linear_1_1681)"/>
<path d="M11.4327 0.0613851L6.11901 1.10259C6.03167 1.1197 5.96701 1.19372 5.96174 1.28254L5.63487 6.80307C5.62719 6.9331 5.7466 7.03402 5.87351 7.00475L7.35292 6.66332C7.49134 6.6314 7.61641 6.75331 7.58797 6.89251L7.14843 9.04483C7.11885 9.18969 7.25485 9.31355 7.39632 9.27058L8.31007 8.99296C8.45173 8.94996 8.58785 9.07417 8.55788 9.21915L7.85938 12.5999C7.81567 12.8114 8.09696 12.9267 8.21427 12.7454L8.29263 12.6243L12.6225 3.98325C12.695 3.83856 12.57 3.67359 12.4111 3.70425L10.8883 3.99815C10.7452 4.02574 10.6234 3.89248 10.6638 3.75247L11.6577 0.306946C11.6982 0.166702 11.576 0.033318 11.4327 0.0613851Z" fill="url(#paint1_linear_1_1681)"/>
</g>
<defs>
<linearGradient id="paint0_linear_1_1681" x1="0.234137" y1="1.28779" x2="9.17072" y2="13.4244" gradientUnits="userSpaceOnUse">
<stop stop-color="#41D1FF"/>
<stop offset="1" stop-color="#BD34FE"/>
</linearGradient>
<linearGradient id="paint1_linear_1_1681" x1="7.59608" y1="0.34407" x2="9.21267" y2="11.4336" gradientUnits="userSpaceOnUse">
<stop stop-color="#FFEA83"/>
<stop offset="0.0833333" stop-color="#FFDD35"/>
<stop offset="1" stop-color="#FFA800"/>
</linearGradient>
</defs>
</svg>
