<svg width="16" height="16" viewBox="0 0 16 16" fill="none" xmlns="http://www.w3.org/2000/svg">
<mask id="mask0_1_1480" style="mask-type:luminance" maskUnits="userSpaceOnUse" x="0" y="0" width="16" height="16">
<path d="M14 0H2C0.89543 0 0 0.89543 0 2V14C0 15.1046 0.89543 16 2 16H14C15.1046 16 16 15.1046 16 14V2C16 0.89543 15.1046 0 14 0Z" fill="white"/>
</mask>
<g mask="url(#mask0_1_1480)">
<path d="M0 0H16V16H0V0Z" fill="black"/>
<path d="M6.04466 10.9333C6.42987 10.9333 6.81131 10.8575 7.1672 10.7101C7.52309 10.5626 7.84646 10.3466 8.11884 10.0742C8.39123 9.80178 8.60729 9.47841 8.75471 9.12252C8.90212 8.76663 8.97799 8.3852 8.97799 7.99998C8.97799 7.61477 8.90212 7.23333 8.75471 6.87745C8.60729 6.52156 8.39123 6.19819 8.11884 5.9258C7.84646 5.65342 7.52309 5.43735 7.1672 5.28994C6.81131 5.14252 6.42987 5.06665 6.04466 5.06665C5.26669 5.06665 4.52059 5.3757 3.97048 5.9258C3.42037 6.47591 3.11133 7.22202 3.11133 7.99998C3.11133 8.77795 3.42037 9.52406 3.97048 10.0742C4.52059 10.6243 5.26669 10.9333 6.04466 10.9333Z" fill="#EB001B"/>
<path d="M9.95579 10.9333C10.341 10.9333 10.7224 10.8575 11.0783 10.7101C11.4342 10.5626 11.7576 10.3466 12.03 10.0742C12.3024 9.80178 12.5184 9.47841 12.6658 9.12252C12.8133 8.76663 12.8891 8.3852 12.8891 7.99998C12.8891 7.61477 12.8133 7.23333 12.6658 6.87745C12.5184 6.52156 12.3024 6.19819 12.03 5.9258C11.7576 5.65342 11.4342 5.43735 11.0783 5.28994C10.7224 5.14252 10.341 5.06665 9.95579 5.06665C9.17783 5.06665 8.43172 5.3757 7.88161 5.9258C7.33151 6.47591 7.02246 7.22202 7.02246 7.99998C7.02246 8.77795 7.33151 9.52406 7.88161 10.0742C8.43172 10.6243 9.17783 10.9333 9.95579 10.9333Z" fill="#F79E1B"/>
<path d="M8.00024 10.1867C8.30834 9.91187 8.55475 9.57494 8.72328 9.19805C8.8918 8.82117 8.97862 8.41287 8.97802 8.00002C8.97862 7.58717 8.8918 7.17887 8.72328 6.80199C8.55475 6.4251 8.30834 6.08817 8.00024 5.81335C7.69228 6.08828 7.44596 6.42523 7.27744 6.80209C7.10892 7.17895 7.02203 7.5872 7.02246 8.00002C7.02186 8.41287 7.10868 8.82117 7.27721 9.19805C7.44573 9.57494 7.69215 9.91187 8.00024 10.1867Z" fill="#FF5F00"/>
</g>
</svg>
