<svg width="16" height="16" viewBox="0 0 16 16" fill="none" xmlns="http://www.w3.org/2000/svg">
<mask id="mask0_1_1625" style="mask-type:luminance" maskUnits="userSpaceOnUse" x="0" y="0" width="16" height="16">
<path d="M16 0H0V16H16V0Z" fill="white"/>
</mask>
<g mask="url(#mask0_1_1625)">
<path d="M13.7974 2.11514C12.3195 -0.0136697 9.37709 -0.637399 7.26183 0.704974L3.53302 3.09142C2.51607 3.7287 1.81098 4.77277 1.60759 5.95243C1.43132 6.94226 1.58048 7.95921 2.05505 8.84057C1.72963 9.3287 1.51268 9.87108 1.41776 10.4406C1.20082 11.6474 1.48556 12.8948 2.19065 13.8846C3.68217 16.0135 6.61098 16.6372 8.72624 15.2948L12.4551 12.9219C13.472 12.2846 14.1771 11.2406 14.3805 10.0609C14.5567 9.07108 14.4076 8.05413 13.933 7.17277C14.2584 6.68464 14.4754 6.14226 14.5703 5.57277C14.8008 4.35243 14.5161 3.10497 13.7974 2.11514Z" fill="#FF3E00"/>
<path d="M6.8958 14.0879C5.68902 14.3998 4.428 13.9252 3.72292 12.9083C3.28902 12.3117 3.12631 11.5659 3.24834 10.8337C3.27546 10.7117 3.30258 10.6032 3.3297 10.4812L3.3975 10.2642L3.58733 10.3998C4.03478 10.7252 4.52292 10.9693 5.05173 11.132L5.18733 11.1727L5.17377 11.3083C5.16021 11.4981 5.21445 11.7015 5.32292 11.8642C5.53987 12.1761 5.91953 12.3252 6.28563 12.2303C6.36699 12.2032 6.44834 12.1761 6.51614 12.1354L10.2314 9.76249C10.4212 9.64046 10.5433 9.46419 10.5839 9.24724C10.6246 9.03029 10.5704 8.79978 10.4483 8.62351C10.2314 8.31164 9.85173 8.17605 9.48563 8.27097C9.40428 8.29809 9.32292 8.3252 9.25512 8.36588L7.83139 9.27436C7.60089 9.42351 7.34326 9.53198 7.07207 9.59978C5.86529 9.91165 4.60428 9.43707 3.89919 8.42012C3.47885 7.82351 3.30258 7.07775 3.43817 6.34554C3.56021 5.64046 3.99411 5.00317 4.60428 4.62351L8.33309 2.25063C8.5636 2.10148 8.82123 1.993 9.09241 1.91164C10.2992 1.59978 11.5602 2.07436 12.2653 3.09131C12.6992 3.68792 12.8619 4.43368 12.7399 5.16588C12.7128 5.28792 12.6856 5.39639 12.645 5.51842L12.5772 5.73537L12.3873 5.59978C11.9399 5.27436 11.4517 5.03029 10.9229 4.86758L10.7873 4.8269L10.8009 4.69131C10.8144 4.50147 10.7602 4.29809 10.6517 4.13537C10.4348 3.82351 10.0551 3.68792 9.68902 3.78283C9.60767 3.80995 9.52631 3.83707 9.45851 3.87775L5.74326 6.25063C5.55343 6.37266 5.43139 6.54893 5.39072 6.76588C5.35004 6.98283 5.40428 7.21334 5.52631 7.38961C5.74326 7.70148 6.12292 7.83707 6.48902 7.74215C6.57038 7.71503 6.65173 7.68792 6.71953 7.64724L8.14326 6.73876C8.37377 6.58961 8.63139 6.48114 8.90258 6.39978C10.1094 6.08792 11.3704 6.56249 12.0755 7.57944C12.5094 8.17605 12.6721 8.92181 12.55 9.65402C12.428 10.3591 11.9941 10.9964 11.3839 11.3761L7.65512 13.749C7.42461 13.8981 7.16699 14.0066 6.8958 14.0879Z" fill="white"/>
</g>
</svg>
