<svg width="16" height="16" viewBox="0 0 16 16" fill="none" xmlns="http://www.w3.org/2000/svg">
<path d="M7.402 13.8778C9.45763 13.4675 11.1555 13.1281 11.175 13.1234L11.2104 13.1149L9.2697 10.5071C8.2023 9.07282 7.32898 7.89376 7.32898 7.88697C7.32898 7.8741 9.33293 1.64003 9.3442 1.61785C9.34797 1.61043 10.7117 4.27023 12.65 8.06538C14.4647 11.6185 15.9608 14.548 15.9747 14.5755L16 14.6254L9.83224 14.6245L3.66449 14.6236L7.402 13.8778ZM0 13.0825C0 13.0788 0.914457 11.2856 2.03212 9.09741L4.06425 5.11902L6.43245 2.8739C7.73497 1.63908 8.80417 0.627262 8.80845 0.625417C8.81274 0.623572 8.79561 0.672289 8.77038 0.733678C8.74515 0.795067 7.58796 3.59899 6.19884 6.96461L3.67317 13.084L1.83659 13.0866C0.826464 13.088 0 13.0862 0 13.0825Z" fill="#0089D6"/>
</svg>
