<svg width="16" height="16" viewBox="0 0 16 16" fill="none" xmlns="http://www.w3.org/2000/svg">
<path d="M6.71709 5.81126H8.67935C9.8869 5.81126 9.8869 7.01881 8.67935 7.01881H6.71709V5.81126ZM2.03784 11.3961H8.07558V9.73579H6.71709V8.52824H8.22652C9.8869 8.52824 8.98124 11.3961 10.3397 11.3961H14.1133V8.52824H13.2077V8.83013C13.2077 10.0376 11.8492 9.88673 11.6982 9.13202C11.5473 8.3773 10.9435 7.77353 10.7926 7.77353C13.0567 6.56598 11.6982 4.15088 9.8869 4.15088H2.79256V5.81126H4.30199V9.73579H2.03784V11.3961Z" fill="#666666" stroke="#666666" stroke-width="0.150943" stroke-linejoin="round"/>
<path d="M8.00009 14.4907C11.5847 14.4907 14.4907 11.5847 14.4907 8.00009C14.4907 4.41545 11.5847 1.50952 8.00009 1.50952C4.41545 1.50952 1.50952 4.41545 1.50952 8.00009C1.50952 11.5847 4.41545 14.4907 8.00009 14.4907Z" stroke="#666666" stroke-width="1.35849" stroke-linejoin="round"/>
<path d="M14.9436 8.45278L15.6983 7.99995L14.9436 7.54712V8.45278Z" fill="#666666" stroke="#666666" stroke-width="0.45283" stroke-linejoin="round"/>
<path d="M14.7218 9.79866L15.5503 9.50177L14.8984 8.9104L14.7218 9.79866Z" fill="#666666" stroke="#666666" stroke-width="0.45283" stroke-linejoin="round"/>
<path d="M14.2418 11.0755L15.1124 10.9459L14.5884 10.2388L14.2418 11.0755Z" fill="#666666" stroke="#666666" stroke-width="0.45283" stroke-linejoin="round"/>
<path d="M13.5217 12.2341L14.4008 12.2768L14.0249 11.481L13.5217 12.2341Z" fill="#666666" stroke="#666666" stroke-width="0.45283" stroke-linejoin="round"/>
<path d="M12.5896 13.23L13.4434 13.4435L13.23 12.5896L12.5896 13.23Z" fill="#666666" stroke="#666666" stroke-width="0.45283" stroke-linejoin="round"/>
<path d="M11.4811 14.0247L12.2769 14.4006L12.2341 13.5215L11.4811 14.0247Z" fill="#666666" stroke="#666666" stroke-width="0.45283" stroke-linejoin="round"/>
<path d="M10.239 14.5883L10.9461 15.1122L11.0757 14.2417L10.239 14.5883Z" fill="#666666" stroke="#666666" stroke-width="0.45283" stroke-linejoin="round"/>
<path d="M8.91052 14.8984L9.50189 15.5503L9.79878 14.7217L8.91052 14.8984Z" fill="#666666" stroke="#666666" stroke-width="0.45283" stroke-linejoin="round"/>
<path d="M7.54724 14.9434L8.00007 15.6981L8.4529 14.9434H7.54724Z" fill="#666666" stroke="#666666" stroke-width="0.45283" stroke-linejoin="round"/>
<path d="M6.20129 14.7217L6.49818 15.5503L7.08955 14.8984L6.20129 14.7217Z" fill="#666666" stroke="#666666" stroke-width="0.45283" stroke-linejoin="round"/>
<path d="M4.9248 14.2417L5.05435 15.1122L5.76152 14.5883L4.9248 14.2417Z" fill="#666666" stroke="#666666" stroke-width="0.45283" stroke-linejoin="round"/>
<path d="M3.76605 13.5215L3.72327 14.4006L4.51908 14.0247L3.76605 13.5215Z" fill="#666666" stroke="#666666" stroke-width="0.45283" stroke-linejoin="round"/>
<path d="M2.77023 12.5896L2.55676 13.4435L3.41062 13.23L2.77023 12.5896Z" fill="#666666" stroke="#666666" stroke-width="0.45283" stroke-linejoin="round"/>
<path d="M1.97532 11.481L1.59937 12.2768L2.47848 12.2341L1.97532 11.481Z" fill="#666666" stroke="#666666" stroke-width="0.45283" stroke-linejoin="round"/>
<path d="M1.41191 10.2388L0.887939 10.9459L1.75849 11.0755L1.41191 10.2388Z" fill="#666666" stroke="#666666" stroke-width="0.45283" stroke-linejoin="round"/>
<path d="M1.10183 8.9104L0.449951 9.50177L1.27851 9.79866L1.10183 8.9104Z" fill="#666666" stroke="#666666" stroke-width="0.45283" stroke-linejoin="round"/>
<path d="M1.0566 7.54712L0.30188 7.99995L1.0566 8.45279V7.54712Z" fill="#666666" stroke="#666666" stroke-width="0.45283" stroke-linejoin="round"/>
<path d="M1.27851 6.20117L0.449951 6.49806L1.10183 7.08943L1.27851 6.20117Z" fill="#666666" stroke="#666666" stroke-width="0.45283" stroke-linejoin="round"/>
<path d="M1.7585 4.92456L0.887939 5.0541L1.41192 5.76128L1.7585 4.92456Z" fill="#666666" stroke="#666666" stroke-width="0.45283" stroke-linejoin="round"/>
<path d="M2.47847 3.76592L1.59937 3.72314L1.97531 4.51895L2.47847 3.76592Z" fill="#666666" stroke="#666666" stroke-width="0.45283" stroke-linejoin="round"/>
<path d="M3.41062 2.77011L2.55676 2.55664L2.77022 3.41051L3.41062 2.77011Z" fill="#666666" stroke="#666666" stroke-width="0.45283" stroke-linejoin="round"/>
<path d="M4.5192 1.97532L3.72339 1.59937L3.76617 2.47848L4.5192 1.97532Z" fill="#666666" stroke="#666666" stroke-width="0.45283" stroke-linejoin="round"/>
<path d="M5.76128 1.41192L5.0541 0.887939L4.92456 1.7585L5.76128 1.41192Z" fill="#666666" stroke="#666666" stroke-width="0.45283" stroke-linejoin="round"/>
<path d="M7.08967 1.10158L6.49831 0.449707L6.20142 1.27826L7.08967 1.10158Z" fill="#666666" stroke="#666666" stroke-width="0.45283" stroke-linejoin="round"/>
<path d="M8.45302 1.05672L8.00019 0.302002L7.54736 1.05672H8.45302Z" fill="#666666" stroke="#666666" stroke-width="0.45283" stroke-linejoin="round"/>
<path d="M9.7989 1.27826L9.50202 0.449707L8.91064 1.10158L9.7989 1.27826Z" fill="#666666" stroke="#666666" stroke-width="0.45283" stroke-linejoin="round"/>
<path d="M11.0755 1.7585L10.9459 0.887939L10.2388 1.41192L11.0755 1.7585Z" fill="#666666" stroke="#666666" stroke-width="0.45283" stroke-linejoin="round"/>
<path d="M12.2342 2.47847L12.277 1.59937L11.4812 1.97532L12.2342 2.47847Z" fill="#666666" stroke="#666666" stroke-width="0.45283" stroke-linejoin="round"/>
<path d="M13.23 3.41051L13.4435 2.55664L12.5896 2.77011L13.23 3.41051Z" fill="#666666" stroke="#666666" stroke-width="0.45283" stroke-linejoin="round"/>
<path d="M14.0249 4.51895L14.4008 3.72314L13.5217 3.76592L14.0249 4.51895Z" fill="#666666" stroke="#666666" stroke-width="0.45283" stroke-linejoin="round"/>
<path d="M14.5883 5.76128L15.1123 5.0541L14.2417 4.92456L14.5883 5.76128Z" fill="#666666" stroke="#666666" stroke-width="0.45283" stroke-linejoin="round"/>
<path d="M14.8984 7.08943L15.5502 6.49806L14.7217 6.20117L14.8984 7.08943Z" fill="#666666" stroke="#666666" stroke-width="0.45283" stroke-linejoin="round"/>
<path d="M6.94336 1.6604L7.99996 2.717L9.05657 1.6604H6.94336Z" fill="#666666" stroke="#666666" stroke-width="0.90566" stroke-linejoin="round"/>
<path d="M13.7026 5.03613L13.0243 6.36753L14.3557 7.04591L13.7026 5.03613Z" fill="#666666" stroke="#666666" stroke-width="0.90566" stroke-linejoin="round"/>
<path d="M12.5812 12.5079L11.1053 12.2742L10.8715 13.75L12.5812 12.5079Z" fill="#666666" stroke="#666666" stroke-width="0.90566" stroke-linejoin="round"/>
<path d="M5.12844 13.7498L4.89468 12.2739L3.41882 12.5077L5.12844 13.7498Z" fill="#666666" stroke="#666666" stroke-width="0.90566" stroke-linejoin="round"/>
<path d="M1.64404 7.04591L2.97544 6.36753L2.29706 5.03613L1.64404 7.04591Z" fill="#666666" stroke="#666666" stroke-width="0.90566" stroke-linejoin="round"/>
</svg>
