<svg width="16" height="16" viewBox="0 0 16 16" fill="none" xmlns="http://www.w3.org/2000/svg">
<path d="M3.20627 2.05371C3.20627 4.19758 4.53772 5.48389 7.20062 6.1609L10.0215 6.81535C12.549 7.40209 14.0836 8.84638 14.0836 11.1933C14.1062 12.2089 13.7677 13.2018 13.1583 14.0142C13.1583 11.6673 11.9397 10.4035 9.02855 9.63622L6.25281 9.00435C4.01868 8.50787 2.30359 7.31182 2.30359 4.76175C2.30359 3.79137 2.61953 2.82099 3.20627 2.05371Z" fill="#F04939"/>
<path d="M11.4206 10.6065C12.6166 11.3738 13.1582 12.457 13.1582 14.0141C12.1427 15.3004 10.4051 16 8.35151 16C4.89877 16 2.43896 14.2849 1.91992 11.3286H5.23727C5.66604 12.6827 6.79439 13.3145 8.32895 13.3145C10.1568 13.3371 11.398 12.3441 11.4206 10.6065ZM4.9439 5.23554C3.81555 4.55853 3.16111 3.33992 3.20624 2.03103C4.17662 0.767278 5.84658 0 7.87761 0C11.4206 0 13.4516 1.87306 13.9707 4.49083H10.7661C10.4051 3.45275 9.525 2.64034 7.92274 2.64034C6.18508 2.66291 5.0116 3.65585 4.9439 5.23554Z" fill="#F37368"/>
</svg>
