<svg width="16" height="16" viewBox="0 0 16 16" fill="none" xmlns="http://www.w3.org/2000/svg">
<path d="M8.15991 6.54541V9.6436H12.4654C12.2763 10.64 11.709 11.4837 10.8581 12.0509L13.4544 14.0655C14.9671 12.6692 15.8399 10.6182 15.8399 8.18186C15.8399 7.61459 15.789 7.06909 15.6944 6.5455L8.15991 6.54541Z" fill="#4285F4"/>
<path d="M3.6764 9.52271L3.09083 9.97095L1.01807 11.5855C2.33443 14.1963 5.03241 16 8.15966 16C10.3196 16 12.1305 15.2873 13.4542 14.0655L10.8578 12.0509C10.1451 12.5309 9.23598 12.8219 8.15966 12.8219C6.07967 12.8219 4.31245 11.4182 3.67967 9.52732L3.6764 9.52271Z" fill="#34A853"/>
<path d="M1.01803 4.41455C0.472607 5.49087 0.159912 6.70543 0.159912 7.99995C0.159912 9.29447 0.472607 10.509 1.01803 11.5854C1.01803 11.5926 3.6799 9.51991 3.6799 9.51991C3.5199 9.03991 3.42532 8.53085 3.42532 7.99987C3.42532 7.46889 3.5199 6.95983 3.6799 6.47983L1.01803 4.41455Z" fill="#FBBC05"/>
<path d="M8.15982 3.18545C9.33802 3.18545 10.3853 3.59271 11.2216 4.37818L13.5125 2.0873C12.1234 0.792777 10.3199 0 8.15982 0C5.03257 0 2.33443 1.79636 1.01807 4.41455L3.67985 6.48001C4.31254 4.58908 6.07983 3.18545 8.15982 3.18545Z" fill="#EA4335"/>
</svg>
