<svg width="16" height="16" viewBox="0 0 16 16" fill="none" xmlns="http://www.w3.org/2000/svg">
<mask id="mask0_1_1364" style="mask-type:luminance" maskUnits="userSpaceOnUse" x="0" y="0" width="16" height="16">
<path d="M14 0H2C0.89543 0 0 0.89543 0 2V14C0 15.1046 0.89543 16 2 16H14C15.1046 16 16 15.1046 16 14V2C16 0.89543 15.1046 0 14 0Z" fill="white"/>
</mask>
<g mask="url(#mask0_1_1364)">
<path d="M14 0H2C0.89543 0 0 0.89543 0 2V14C0 15.1046 0.89543 16 2 16H14C15.1046 16 16 15.1046 16 14V2C16 0.89543 15.1046 0 14 0Z" fill="#016FD0"/>
<path d="M7.0999 2.5H15.9999L16 13.5H6.5V8.5H4.3999L7.0999 2.5Z" fill="white"/>
<path fill-rule="evenodd" clip-rule="evenodd" d="M7.7934 3.5L6 7.5H7.23L7.56817 6.69894H9.40141L9.73957 7.5H11L9.21413 3.5H7.7934ZM7.94742 5.80125L8.4851 4.52789L9.02246 5.80125H7.94742ZM7.5 8.5V12.5H11H12.3746L13.4985 11.2196L14.6339 12.5H16V12.4435L14.2131 10.4977L16 8.53136V8.5H14.6475L13.5287 9.76772L12.413 8.5H11H7.5ZM11 8.5L12.8255 10.4977L11 12.5V11.5677H8.63346V10.9533H10.9436V10.047H8.63346V9.42145H11V8.5ZM11 3.5V7.4907H12.0499V4.74932L13.0462 7.4907H13.9901L14.9661 4.75862V7.5L16 7.4907V3.5H14.3933L13.5285 5.95927L12.6694 3.50589L11 3.5Z" fill="#016FD0"/>
</g>
</svg>
