<svg width="16" height="16" viewBox="0 0 16 16" fill="none" xmlns="http://www.w3.org/2000/svg">
<path d="M16 0H0V16H16V0Z" fill="#FB651E"/>
<path d="M7.46089 9.0465L4.7146 3.90186H5.96969L7.58516 7.15765C7.61001 7.21564 7.63901 7.2757 7.67215 7.33784C7.70528 7.39997 7.73428 7.46417 7.75913 7.53045C7.7757 7.5553 7.78813 7.57809 7.79641 7.5988C7.8047 7.61951 7.81298 7.63815 7.82127 7.65472C7.86269 7.73756 7.89997 7.81833 7.93311 7.89704C7.96624 7.97574 7.99524 8.04823 8.02009 8.1145C8.08637 7.97367 8.15886 7.82248 8.23756 7.66093C8.31626 7.49938 8.39703 7.33162 8.47988 7.15765L10.1202 3.90186H11.2883L8.51716 9.10864V12.4266H7.46089V9.0465Z" fill="white"/>
</svg>
