<svg width="16" height="16" viewBox="0 0 16 16" fill="none" xmlns="http://www.w3.org/2000/svg">
<path d="M4.80411 11.157C3.97223 10.3153 3.50247 9.17029 3.51225 7.9861C3.51225 6.8019 3.98202 5.65685 4.83347 4.82498C5.55769 4.17906 5.62619 3.06337 4.98027 2.33915C4.33434 1.61493 3.21865 1.54643 2.49443 2.19235C2.4455 2.24128 2.39657 2.28043 2.35742 2.32936C-0.77434 5.44155 -0.784127 10.5013 2.31827 13.633C2.9642 14.3573 4.07989 14.416 4.80411 13.7701C5.52832 13.1241 5.58705 12.0084 4.94112 11.2842C4.89219 11.2451 4.85304 11.1961 4.80411 11.157Z" fill="#FFDA00"/>
<path d="M4.83337 4.825C6.5852 3.08297 9.42336 3.09275 11.1654 4.84458C11.8114 5.57858 12.9271 5.64709 13.6513 5.00116C14.3755 4.35524 14.4538 3.23955 13.8079 2.51534C13.7589 2.4664 13.71 2.40768 13.6611 2.36853C10.5587 -0.763221 5.51844 -0.792581 2.38668 2.30003C2.3769 2.30981 2.36711 2.3196 2.35732 2.32939C1.62332 2.97531 1.55481 4.08121 2.20074 4.81522C2.84666 5.54922 3.95256 5.61773 4.68657 4.97181C4.7355 4.92287 4.78444 4.87394 4.83337 4.825Z" fill="#67B3FF"/>
<path d="M11.1458 11.1766C10.3042 12.0183 9.15907 12.4782 7.97488 12.4782C6.79068 12.4782 5.64563 12.0085 4.81376 11.157C4.16783 10.4328 3.05214 10.3643 2.32792 11.0102C1.6037 11.6561 1.53519 12.7718 2.18112 13.4961C2.23005 13.545 2.2692 13.5939 2.31813 13.6331C5.42053 16.7648 10.4705 16.7942 13.6023 13.6918C13.6121 13.682 13.6121 13.682 13.6219 13.6722C14.3167 12.9871 14.3167 11.8715 13.6317 11.1766C12.9564 10.5013 11.8407 10.4915 11.1458 11.1766Z" fill="#EB5A68"/>
</svg>
