<svg width="16" height="16" viewBox="0 0 16 16" fill="none" xmlns="http://www.w3.org/2000/svg">
<path d="M7.99102 15.8942C12.3558 15.8942 15.8941 12.3558 15.8941 7.99102C15.8941 3.62624 12.3558 0.0878906 7.99102 0.0878906C3.62624 0.0878906 0.0878906 3.62624 0.0878906 7.99102C0.0878906 12.3558 3.62624 15.8942 7.99102 15.8942Z" fill="#FF4500"/>
<path d="M13.2618 7.9911C13.2382 7.35463 12.7038 6.85761 12.0654 6.87922C11.7825 6.88905 11.5134 7.00496 11.3092 7.19938C10.4094 6.58645 9.35253 6.25048 8.26611 6.22695L8.77876 3.76152L10.4702 4.11716C10.5173 4.55131 10.9063 4.86568 11.3404 4.81843C11.7746 4.77136 12.0889 4.38236 12.0417 3.94821C11.9945 3.51407 11.6056 3.1997 11.1715 3.24694C10.9219 3.27241 10.698 3.41782 10.5744 3.63402L8.63738 3.24694C8.50584 3.21743 8.37412 3.29998 8.34462 3.43363V3.43749L7.76119 6.17988C6.66108 6.19762 5.59047 6.53552 4.67897 7.15231C4.21532 6.71624 3.48455 6.73784 3.04847 7.20342C2.61239 7.66707 2.63399 8.39785 3.09958 8.83392C3.19002 8.9184 3.29399 8.99111 3.40991 9.04221C3.402 9.15813 3.402 9.27404 3.40991 9.38995C3.40991 11.1599 5.47262 12.5999 8.01655 12.5999C10.5605 12.5999 12.6232 11.1619 12.6232 9.38995C12.6311 9.27404 12.6311 9.15813 12.6232 9.04221C13.0201 8.84376 13.2697 8.43508 13.2618 7.9911ZM5.35864 8.78282C5.35864 8.34674 5.71428 7.9911 6.15036 7.9911C6.58644 7.9911 6.94208 8.34674 6.94208 8.78282C6.94208 9.21889 6.58644 9.57453 6.15036 9.57453C5.71235 9.57049 5.35864 9.21889 5.35864 8.78282ZM9.94965 10.9869V10.9555C9.38783 11.3779 8.70026 11.5939 7.99688 11.5646C7.2935 11.5941 6.60611 11.3779 6.04411 10.9555C5.96946 10.8651 5.98316 10.7297 6.07361 10.655C6.15211 10.5902 6.26416 10.5902 6.34477 10.655C6.82019 11.0028 7.39975 11.1796 7.98898 11.152C8.57837 11.1835 9.15987 11.0145 9.64108 10.6708C9.72749 10.5863 9.86887 10.5883 9.95352 10.6747C10.038 10.7611 10.0361 10.9025 9.94965 10.9869ZM9.84164 9.63144C9.82795 9.63144 9.81618 9.63144 9.8023 9.63144L9.80828 9.60193C9.3722 9.60193 9.01656 9.24629 9.01656 8.81021C9.01656 8.37414 9.3722 8.0185 9.80828 8.0185C10.2444 8.0185 10.6 8.37414 10.6 8.81021C10.6176 9.24647 10.2777 9.6137 9.84164 9.63144Z" fill="white"/>
</svg>
