<svg width="16" height="16" viewBox="0 0 16 16" fill="none" xmlns="http://www.w3.org/2000/svg">
<mask id="mask0_1_1585" style="mask-type:luminance" maskUnits="userSpaceOnUse" x="0" y="0" width="16" height="16">
<path d="M16 0H0V16H16V0Z" fill="white"/>
</mask>
<g mask="url(#mask0_1_1585)">
<path d="M3.42681 10.0787C3.42681 10.9984 2.68351 11.7417 1.76382 11.7417C0.844137 11.7417 0.10083 10.9984 0.10083 10.0787C0.10083 9.15908 0.844137 8.41577 1.76382 8.41577H3.42681V10.0787ZM4.25831 10.0787C4.25831 9.15908 5.00162 8.41577 5.9213 8.41577C6.84099 8.41577 7.58429 9.15908 7.58429 10.0787V14.2362C7.58429 15.1559 6.84099 15.8992 5.9213 15.8992C5.00162 15.8992 4.25831 15.1559 4.25831 14.2362V10.0787Z" fill="currentColor"/>
<path d="M5.92121 3.40167C5.00152 3.40167 4.25821 2.65836 4.25821 1.73867C4.25821 0.818991 5.00152 0.0756836 5.92121 0.0756836C6.84089 0.0756836 7.5842 0.818991 7.5842 1.73867V3.40167H5.92121ZM5.92121 4.24576C6.84089 4.24576 7.5842 4.98907 7.5842 5.90875C7.5842 6.82844 6.84089 7.57174 5.92121 7.57174H1.75113C0.831442 7.57174 0.0881348 6.82844 0.0881348 5.90875C0.0881348 4.98907 0.831442 4.24576 1.75113 4.24576H5.92121Z" fill="currentColor"/>
<path d="M12.5858 5.90875C12.5858 4.98907 13.3291 4.24576 14.2488 4.24576C15.1685 4.24576 15.9118 4.98907 15.9118 5.90875C15.9118 6.82844 15.1685 7.57174 14.2488 7.57174H12.5858V5.90875ZM11.7543 5.90875C11.7543 6.82844 11.011 7.57174 10.0913 7.57174C9.17165 7.57174 8.42834 6.82844 8.42834 5.90875V1.73867C8.42834 0.818991 9.17165 0.0756836 10.0913 0.0756836C11.011 0.0756836 11.7543 0.818991 11.7543 1.73867V5.90875Z" fill="currentColor"/>
<path d="M10.0913 12.5732C11.011 12.5732 11.7543 13.3165 11.7543 14.2362C11.7543 15.1559 11.011 15.8992 10.0913 15.8992C9.17165 15.8992 8.42834 15.1559 8.42834 14.2362V12.5732H10.0913ZM10.0913 11.7417C9.17165 11.7417 8.42834 10.9984 8.42834 10.0787C8.42834 9.15908 9.17165 8.41577 10.0913 8.41577H14.2614C15.1811 8.41577 15.9244 9.15908 15.9244 10.0787C15.9244 10.9984 15.1811 11.7417 14.2614 11.7417H10.0913Z" fill="currentColor"/>
</g>
</svg>
