<svg width="16" height="16" viewBox="0 0 16 16" fill="none" xmlns="http://www.w3.org/2000/svg">
<path d="M7.90474 0.00013087C7.24499 0.00316291 6.61494 0.0588153 6.06057 0.15584C4.42745 0.441207 4.13094 1.0385 4.13094 2.14002V3.59479H7.9902V4.07971H4.13094H2.68259C1.56099 4.07971 0.578874 4.7465 0.271682 6.01496C-0.0826596 7.4689 -0.0983766 8.37619 0.271682 9.89434C0.546012 11.0244 1.20115 11.8296 2.32276 11.8296H3.64966V10.0856C3.64966 8.82574 4.75179 7.71441 6.06057 7.71441H9.91533C10.9884 7.71441 11.845 6.84056 11.845 5.77472V2.14002C11.845 1.10556 10.9626 0.328487 9.91533 0.15584C9.25237 0.046687 8.56448 -0.00290121 7.90474 0.00013087ZM5.81768 1.17017C6.21631 1.17017 6.54185 1.49742 6.54185 1.89978C6.54185 2.30072 6.21631 2.62494 5.81768 2.62494C5.41761 2.62494 5.09351 2.30072 5.09351 1.89978C5.09351 1.49742 5.41761 1.17017 5.81768 1.17017Z" fill="currentColor"/>
<path d="M12.3262 4.07959V5.7746C12.3262 7.08871 11.1997 8.19476 9.91525 8.19476H6.06049C5.0046 8.19476 4.13086 9.08858 4.13086 10.1345V13.7692C4.13086 14.8036 5.04033 15.4121 6.06049 15.7089C7.28211 16.0641 8.45359 16.1284 9.91525 15.7089C10.8868 15.4306 11.8449 14.8707 11.8449 13.7692V12.3144H7.99012V11.8295H11.8449H13.7745C14.8961 11.8295 15.3141 11.0557 15.7041 9.89422C16.1071 8.69853 16.0899 7.54868 15.7041 6.01483C15.4269 4.91046 14.8975 4.07959 13.7745 4.07959H12.3262ZM10.1581 13.2842C10.5582 13.2842 10.8823 13.6085 10.8823 14.0094C10.8823 14.4118 10.5582 14.739 10.1581 14.739C9.7595 14.739 9.43397 14.4118 9.43397 14.0094C9.43397 13.6085 9.7595 13.2842 10.1581 13.2842Z" fill="currentColor"/>
</svg>
