<svg width="16" height="16" viewBox="0 0 16 16" fill="none" xmlns="http://www.w3.org/2000/svg">
<path d="M8 0C12.4183 0 16 3.58175 16 8C16 12.4183 12.4183 16 8 16C3.58175 16 0 12.4183 0 8C0 3.58175 3.58175 0 8 0Z" fill="#E04E39"/>
<path fill-rule="evenodd" clip-rule="evenodd" d="M8.15823 3.01604C9.18898 2.99566 9.91735 3.27516 10.5441 4.16479C11.9109 7.55341 7.02573 9.30229 6.82985 9.37104L6.82373 9.37304C6.82373 9.37304 6.67623 10.2934 8.07723 10.258C9.80135 10.258 11.614 8.92166 12.3035 8.35679C12.3836 8.29092 12.4857 8.25774 12.5892 8.26388C12.6928 8.27002 12.7902 8.31503 12.862 8.38991L13.3782 8.92616C13.4508 9.00098 13.4922 9.10055 13.4942 9.20476C13.4962 9.30896 13.4585 9.41003 13.3889 9.48754C12.9401 9.98716 11.8871 11.0129 10.3019 11.6755C10.3019 11.6755 7.65685 12.9002 5.87435 11.7405C4.81148 11.0492 4.5191 10.2216 4.40023 9.36079C4.40023 9.36079 3.10973 9.29529 2.2806 8.97154C1.45123 8.64754 2.28673 7.67016 2.28673 7.67016C2.28673 7.67016 2.54173 7.26604 3.02673 7.67016C3.5121 8.07366 4.41798 7.89166 4.41798 7.89166C4.49873 7.25429 4.63298 6.41316 5.02848 5.52541C5.85748 3.66479 7.1271 3.03604 8.15823 3.01604ZM8.76485 4.88041C8.21873 4.35416 6.64185 5.40566 6.58098 7.81166C6.58098 7.81166 7.04648 7.95341 8.07723 7.24541C9.10848 6.53779 9.31098 5.40566 8.76485 4.88041Z" fill="white"/>
</svg>
