<svg width="16" height="16" viewBox="0 0 16 16" fill="none" xmlns="http://www.w3.org/2000/svg">
<mask id="mask0_1_1497" style="mask-type:luminance" maskUnits="userSpaceOnUse" x="0" y="0" width="16" height="16">
<path d="M16 0H0V16H16V0Z" fill="white"/>
</mask>
<g mask="url(#mask0_1_1497)">
<path d="M8 15.375C12.0731 15.375 15.375 12.0731 15.375 8C15.375 3.9269 12.0731 0.625 8 0.625C3.9269 0.625 0.625 3.9269 0.625 8C0.625 12.0731 3.9269 15.375 8 15.375Z" fill="black" stroke="#171717" stroke-linecap="round" stroke-linejoin="round"/>
<path d="M10.63 11V5V11Z" fill="black"/>
<path d="M10.63 11V5" stroke="url(#paint0_linear_1_1497)" stroke-miterlimit="1.41421" stroke-linejoin="round"/>
<path fill-rule="evenodd" clip-rule="evenodd" d="M5.995 5.00087L4.745 5V11H5.995V6.96798L12.3615 14.7076C12.712 14.4793 13.0434 14.2242 13.353 13.9453L5.995 5.00087Z" fill="url(#paint1_linear_1_1497)"/>
</g>
<defs>
<linearGradient id="paint0_linear_1_1497" x1="nan" y1="nan" x2="nan" y2="nan" gradientUnits="userSpaceOnUse">
<stop stop-color="white"/>
<stop offset="0.609375" stop-color="white" stop-opacity="0.57"/>
<stop offset="0.796875" stop-color="white" stop-opacity="0"/>
<stop offset="1" stop-color="white" stop-opacity="0"/>
</linearGradient>
<linearGradient id="paint1_linear_1_1497" x1="9.93749" y1="9.0625" x2="13.5574" y2="13.3992" gradientUnits="userSpaceOnUse">
<stop stop-color="white"/>
<stop offset="1" stop-color="white" stop-opacity="0"/>
</linearGradient>
</defs>
</svg>
