<svg width="16" height="16" viewBox="0 0 16 16" fill="none" xmlns="http://www.w3.org/2000/svg">
<path d="M4.78979 13.4652V8.14404L0.531982 11.4689L4.78979 13.4652Z" fill="white"/>
<path d="M4.78982 8.14412L4.4623 7.72462C4.54083 7.66325 4.63502 7.62518 4.73414 7.61474C4.83326 7.60431 4.93332 7.62194 5.02291 7.66561C5.1125 7.70929 5.18801 7.77726 5.24085 7.86177C5.29368 7.94628 5.3217 8.04394 5.32173 8.14361L4.78982 8.14412ZM4.78982 13.4652H5.32173C5.32177 13.5548 5.2992 13.6429 5.25611 13.7214C5.21302 13.7999 5.1508 13.8663 5.07523 13.9143C4.99966 13.9624 4.91318 13.9906 4.8238 13.9963C4.73443 14.002 4.64506 13.9851 4.56398 13.947L4.78982 13.4652ZM0.532009 11.4689L0.306166 11.9507C0.223835 11.9121 0.15277 11.8531 0.0997577 11.7792C0.0467453 11.7053 0.0135552 11.6191 0.00335663 11.5288C-0.00684198 11.4384 0.00629142 11.3469 0.0415028 11.2631C0.0767141 11.1793 0.132828 11.1059 0.204486 11.0499L0.532009 11.4689ZM5.32173 8.14361V13.4652L4.2574 13.4647V8.14412L5.32173 8.14361ZM4.56398 13.947L0.306166 11.9507L0.758875 10.9876L5.01515 12.9834L4.56398 13.947ZM0.205508 11.0499L4.4623 7.72462L5.11734 8.5631L0.860555 11.8894L0.205508 11.0499Z" fill="#121212"/>
<path d="M7.73193 1.09029C8.13559 0.916562 8.67567 0.984009 9.26276 1.37591C9.84474 1.76424 10.4099 2.43769 10.788 3.31756C11.1661 4.19743 11.2662 5.07117 11.1472 5.76045C11.0276 6.45638 10.7052 6.89376 10.301 7.06749C9.89737 7.24121 9.3578 7.17428 8.77071 6.78237C8.18821 6.39404 7.62309 5.71958 7.24499 4.84073C6.86688 3.96086 6.76724 3.08712 6.88578 2.39732C7.00535 1.70191 7.32827 1.26401 7.73193 1.09029Z" fill="white" stroke="#121212" stroke-width="1.06433" stroke-linejoin="round"/>
<path d="M3.18219 11.2293C3.75957 13.7647 6.7078 15.4713 10.214 14.7499C13.7452 14.0228 15.8805 11.2452 15.3072 8.7297C14.7355 6.21987 11.5966 4.53268 8.07512 5.247C4.04468 6.48352 2.69167 9.07613 3.18219 11.2293Z" fill="#FFC700"/>
<path d="M3.18219 11.2293C3.75957 13.7647 6.7078 15.4713 10.214 14.7499C13.7452 14.0228 15.8805 11.2452 15.3072 8.7297C14.7355 6.21987 11.5966 4.53268 8.07512 5.247C4.04468 6.48352 2.69167 9.07613 3.18219 11.2293Z" fill="url(#paint0_linear_1_1614)"/>
<path d="M3.18219 11.2293C3.75957 13.7647 6.7078 15.4713 10.214 14.7499C13.7452 14.0228 15.8805 11.2452 15.3072 8.7297C14.7355 6.21987 11.5966 4.53268 8.07512 5.247C4.04468 6.48352 2.69167 9.07613 3.18219 11.2293Z" stroke="#121212" stroke-width="1.06433" stroke-linejoin="round"/>
<path d="M10.0408 14.2077C10.182 14.1926 10.3235 14.2331 10.4353 14.3205C10.5471 14.408 10.6204 14.5356 10.6397 14.6763C10.6492 14.7451 10.6448 14.8151 10.6267 14.8822C10.6086 14.9492 10.5772 15.012 10.5344 15.0667C10.4916 15.1214 10.4383 15.167 10.3775 15.2007C10.3168 15.2344 10.2499 15.2555 10.1809 15.2629L10.0408 14.2077ZM8.80948 4.95575C8.95064 4.94061 9.09213 4.98108 9.20394 5.06856C9.31575 5.15604 9.38906 5.28364 9.40832 5.4243C9.41782 5.4931 9.41339 5.56312 9.39531 5.63018C9.37722 5.69725 9.34586 5.75999 9.30306 5.8147C9.26026 5.86941 9.20692 5.91497 9.14618 5.94867C9.08544 5.98237 9.01855 6.00352 8.94948 6.01088L8.80948 4.95575ZM5.85104 10.4793C6.00688 11.6519 6.50762 12.6508 7.23164 13.3176C7.94698 13.9768 8.9035 14.3344 10.0408 14.2077L10.1809 15.2629C8.73079 15.4248 7.46209 14.9614 6.51528 14.0897C5.57665 13.2246 4.9773 11.9799 4.79335 10.5978L5.85104 10.4793ZM8.94948 6.01088C7.80596 6.13862 6.97003 6.6833 6.44835 7.462C5.92155 8.24888 5.69519 9.30758 5.85104 10.4793L4.79335 10.5978C4.60941 9.21459 4.86744 7.89069 5.55724 6.8606C6.25214 5.82284 7.36551 5.11721 8.80948 4.95575L8.94948 6.01088Z" fill="#121212"/>
<path d="M12.3121 13.4049C12.4458 13.3574 12.5928 13.3639 12.7218 13.4231C12.8508 13.4823 12.9516 13.5893 13.0029 13.7217C13.0283 13.7863 13.0406 13.8553 13.0389 13.9247C13.0372 13.9941 13.0216 14.0625 12.993 14.1258C12.9644 14.189 12.9234 14.2459 12.8724 14.2931C12.8215 14.3402 12.7616 14.3767 12.6963 14.4003L12.3121 13.4049ZM10.3541 4.60666C10.4933 4.57867 10.6379 4.60602 10.7572 4.68292C10.8766 4.75981 10.9612 4.88018 10.9933 5.01849C11.0587 5.30463 10.8783 5.58515 10.5906 5.64442L10.3541 4.60666ZM8.32812 10.2845C8.50236 11.0494 8.85441 12.1076 9.49259 12.8286C9.80326 13.1796 10.1691 13.4361 10.6055 13.5541C11.0403 13.6711 11.5967 13.6644 12.3121 13.4049L12.6963 14.4003C11.8159 14.7201 11.0321 14.7615 10.3433 14.576C9.6561 14.3906 9.11449 13.9925 8.69499 13.5183C7.87184 12.5884 7.47125 11.312 7.28577 10.4986L8.32812 10.2845ZM10.5906 5.64442C8.93361 5.98523 7.80286 7.97848 8.32812 10.2845L7.28577 10.4986C6.67773 7.82723 7.93315 5.10484 10.3541 4.60666L10.5906 5.64442Z" fill="#121212"/>
<path d="M2.94413 3.00984C2.69018 3.36905 2.64369 3.91066 2.90478 4.56622C3.16333 5.21667 3.70494 5.91004 4.48671 6.46239C5.26848 7.01525 6.10236 7.29525 6.80135 7.32233C7.50647 7.34993 8.0021 7.12562 8.25553 6.76641C8.50948 6.40772 8.55598 5.8661 8.29539 5.21003C8.03633 4.56009 7.49523 3.86723 6.71346 3.31437C5.9317 2.761 5.09782 2.48151 4.39883 2.45443C3.6937 2.42684 3.19807 2.65115 2.94413 3.00984Z" fill="white" stroke="#121212" stroke-width="1.06433" stroke-linejoin="round"/>
<path d="M11.935 9.08069C11.6479 9.14285 11.3647 8.9605 11.3026 8.67338C11.2404 8.38627 11.4228 8.10313 11.7099 8.04096C11.997 7.9788 12.2801 8.16115 12.3423 8.44826C12.4045 8.73538 12.2221 9.01852 11.935 9.08069Z" fill="#121212" stroke="#121212" stroke-width="0.531908" stroke-linejoin="round"/>
<defs>
<linearGradient id="paint0_linear_1_1614" x1="7.93256" y1="4.73298" x2="10.9569" y2="15.1249" gradientUnits="userSpaceOnUse">
<stop stop-color="#FFE073"/>
<stop offset="1" stop-color="#FFA800"/>
</linearGradient>
</defs>
</svg>
