<svg width="16" height="16" viewBox="0 0 16 16" fill="none" xmlns="http://www.w3.org/2000/svg">
<mask id="mask0_1_1632" style="mask-type:luminance" maskUnits="userSpaceOnUse" x="0" y="0" width="16" height="16">
<path d="M16 0H0V16H16V0Z" fill="white"/>
</mask>
<g mask="url(#mask0_1_1632)">
<path fill-rule="evenodd" clip-rule="evenodd" d="M7.26824e-06 2.99332C2.42358e-06 2.99555 0 2.99777 0 3V13C0 13.6479 0.205396 14.2479 0.554626 14.7383L2.03387 13.259C2.01178 13.1764 2 13.0896 2 13V8H7.26824e-06V2.99332ZM8.00001 2H13C13.5523 2 14 2.44772 14 3V13C14 13.5523 13.5523 14 13 14H8.50001V16H13C14.6569 16 16 14.6569 16 13V3C16 1.34315 14.6569 0 13 0H8.00001V2ZM7.50001 16V14H3C2.91042 14 2.82359 13.9882 2.74098 13.9661L1.26173 15.4454C1.75214 15.7946 2.35208 16 3 16H7.50001Z" fill="url(#paint0_linear_1_1632)"/>
<mask id="mask1_1_1632" style="mask-type:luminance" maskUnits="userSpaceOnUse" x="3" y="3" width="10" height="10">
<path d="M12 3.5H4C3.72386 3.5 3.5 3.72386 3.5 4V12C3.5 12.2761 3.72386 12.5 4 12.5H12C12.2761 12.5 12.5 12.2761 12.5 12V4C12.5 3.72386 12.2761 3.5 12 3.5Z" fill="white"/>
</mask>
<g mask="url(#mask1_1_1632)">
<path d="M12 3.5H4C3.72386 3.5 3.5 3.72386 3.5 4V12C3.5 12.2761 3.72386 12.5 4 12.5H12C12.2761 12.5 12.5 12.2761 12.5 12V4C12.5 3.72386 12.2761 3.5 12 3.5Z" stroke="#171717" stroke-width="4" stroke-linejoin="round"/>
</g>
</g>
<defs>
<linearGradient id="paint0_linear_1_1632" x1="8.68832" y1="1.98437" x2="1.79792" y2="8.82805" gradientUnits="userSpaceOnUse">
<stop stop-color="#0096FF"/>
<stop offset="1" stop-color="#FF1E56"/>
</linearGradient>
</defs>
</svg>
