<svg width="16" height="16" viewBox="0 0 16 16" fill="none" xmlns="http://www.w3.org/2000/svg">
<path fill-rule="evenodd" clip-rule="evenodd" d="M13.4695 3.39282C14.0722 3.55416 14.5459 4.02782 14.7073 4.63055C14.9988 5.72192 15 8.00032 15 8.00032C15 8.00032 15 10.2787 14.7073 11.3701C14.5459 11.9729 14.0722 12.4465 13.4695 12.6078C12.3782 12.9006 7.99998 12.9006 7.99998 12.9006C7.99998 12.9006 3.62183 12.9006 2.53045 12.6078C1.92773 12.4465 1.45407 11.9729 1.29272 11.3701C1 10.2787 1 8.00032 1 8.00032C1 8.00032 1 5.72192 1.29272 4.63055C1.45407 4.02782 1.92773 3.55416 2.53045 3.39282C3.62183 3.1001 7.99998 3.1001 7.99998 3.1001C7.99998 3.1001 12.3782 3.1001 13.4695 3.39282ZM10.2362 8.00055L6.59906 10.1003V5.90077L10.2362 8.00055Z" fill="currentColor"/>
</svg>
