<svg width="16" height="16" viewBox="0 0 16 16" fill="none" xmlns="http://www.w3.org/2000/svg">
<path d="M8.97614 13.3334H14.924C15.1129 13.3334 15.2985 13.2842 15.4621 13.1906C15.6257 13.0969 15.7616 12.9622 15.856 12.8001C15.9504 12.6379 16.0001 12.4539 16 12.2667C15.9999 12.0795 15.9501 11.8956 15.8555 11.7335L11.8611 4.87634C11.7667 4.7142 11.6309 4.57955 11.4673 4.48594C11.3037 4.39234 11.1182 4.34304 10.9293 4.34304C10.7404 4.34304 10.5549 4.39234 10.3913 4.48594C10.2277 4.57955 10.0919 4.7142 9.99751 4.87634L8.97614 6.63083L6.97922 3.19996C6.88473 3.03785 6.74885 2.90322 6.58524 2.80962C6.42162 2.71603 6.23604 2.66675 6.04713 2.66675C5.85822 2.66675 5.67264 2.71603 5.50903 2.80962C5.3454 2.90322 5.20953 3.03785 5.11504 3.19996L0.144471 11.7335C0.0499099 11.8956 8.22996e-05 12.0795 1.01863e-07 12.2667C-8.20958e-05 12.4539 0.0495838 12.6379 0.144003 12.8001C0.238421 12.9622 0.374263 13.0969 0.537867 13.1906C0.701468 13.2842 0.887063 13.3334 1.07598 13.3334H4.80956C6.28885 13.3334 7.37977 12.6894 8.13042 11.433L9.95287 8.30489L10.929 6.63083L13.8586 11.6594H9.95287L8.97614 13.3334ZM4.74869 11.6576L2.14313 11.6571L6.04887 4.95273L7.99769 8.30489L6.69287 10.5454C6.19436 11.3606 5.62804 11.6576 4.74869 11.6576Z" fill="#00DC82"/>
</svg>
