<svg width="16" height="16" viewBox="0 0 16 16" fill="none" xmlns="http://www.w3.org/2000/svg">
<path d="M13.5 5C14.8807 5 16 3.88071 16 2.5C16 1.11929 14.8807 0 13.5 0C12.1193 0 11 1.11929 11 2.5C11 3.88071 12.1193 5 13.5 5Z" fill="#0068D6"/>
<path fill-rule="evenodd" clip-rule="evenodd" d="M9.53095 2H1.75H1V3.5H1.75H9.62602C9.54375 3.18038 9.5 2.8453 9.5 2.5C9.5 2.33067 9.51052 2.1638 9.53095 2ZM1.75 12H1V13.5H1.75H14.25H15V12H14.25H1.75ZM1 7H1.75H14.25H15V8.5H14.25H1.75H1V7Z" fill="currentColor"/>
</svg>
