<svg width="16" height="17" viewBox="0 0 16 17" fill="none" xmlns="http://www.w3.org/2000/svg">
<path fill-rule="evenodd" clip-rule="evenodd" d="M15.5575 15.1389L15.0694 14.5695L12.5082 11.5814C13.4818 10.7072 14.2004 9.55333 14.5373 8.24448L14.7242 7.51816L13.2716 7.14427L13.0846 7.8706C12.8262 8.8747 12.2773 9.76385 11.5317 10.4422L10.3921 9.11253C11.0739 8.4739 11.5 7.56548 11.5 6.55754V3.55754C11.5 1.62454 9.93301 0.0575357 8.00001 0.0575357C6.45486 0.0575357 5.14357 1.05881 4.67956 2.44791L3.06945 0.569442L2.58136 0L1.44247 0.976187L1.93057 1.54563L13.9305 15.5457L14.4186 16.1151L15.5575 15.1389ZM6.00001 3.98843V3.55754C6.00001 2.45297 6.89544 1.55754 8.00001 1.55754C9.10458 1.55754 10 2.45297 10 3.55754V6.55754C10 7.10875 9.77756 7.60884 9.41438 7.97186L6.00001 3.98843ZM1.46271 8.24448L1.27576 7.51816L2.72842 7.14427L2.91536 7.8706C3.49821 10.1352 5.55475 11.8076 8.00001 11.8076H8.75001V12.5576V13.3076V15.3076V16.0576H7.25001V15.3076V13.2664C4.44031 12.9559 2.15161 10.9211 1.46271 8.24448Z" fill="#666666"/>
</svg>
