<svg width="16" height="16" viewBox="0 0 16 16" fill="none" xmlns="http://www.w3.org/2000/svg">
<path fill-rule="evenodd" clip-rule="evenodd" d="M2.46966 3.5302L2.5482 3.60874C1.98451 4.30772 1.5525 5.11732 1.28985 5.99987H2.8749C3.43288 4.57104 4.57113 3.43276 5.99995 2.87476V1.28969C5.11741 1.55235 4.30782 1.98438 3.60885 2.54807L3.53032 2.46954L2.03032 0.969539L1.49999 0.439209L0.439331 1.49987L0.969661 2.0302L2.46966 3.5302ZM7.9801 14.9998H7.99999H8.01988H7.9801ZM13.4517 12.391C14.0154 11.692 14.4474 10.8824 14.7101 9.99987H13.125C12.567 11.4287 11.4288 12.5669 9.99995 13.1249V14.71C10.8825 14.4473 11.6921 14.0153 12.391 13.4516L12.4697 13.5302L13.9697 15.0302L14.5 15.5606L15.5607 14.4999L15.0303 13.9696L13.5303 12.4696L13.4517 12.391ZM13.4518 3.60874C14.0155 4.30772 14.4475 5.11732 14.7101 5.99987H13.1251C12.5671 4.57101 11.4288 3.43272 9.99995 2.87472V1.28967C10.8825 1.55233 11.6921 1.98436 12.3911 2.54808L12.4697 2.46954L13.9697 0.969539L14.5 0.439209L15.5607 1.49987L15.0303 2.0302L13.5303 3.5302L13.4518 3.60874ZM1.28989 9.99987H2.87496C3.43296 11.4287 4.57118 12.5669 5.99995 13.1249V14.7099C5.11744 14.4473 4.30788 14.0153 3.60893 13.4516L3.53032 13.5302L2.03032 15.0302L1.49999 15.5606L0.439331 14.4999L0.969661 13.9696L2.46966 12.4696L2.54827 12.391C1.98457 11.692 1.55255 10.8824 1.28989 9.99987ZM7.99999 9.99987C9.10456 9.99987 9.99999 9.10444 9.99999 7.99987C9.99999 6.8953 9.10456 5.99987 7.99999 5.99987C6.89542 5.99987 5.99999 6.8953 5.99999 7.99987C5.99999 9.10444 6.89542 9.99987 7.99999 9.99987Z" fill="#666666"/>
</svg>
