<svg width="16" height="16" viewBox="0 0 16 16" fill="none" xmlns="http://www.w3.org/2000/svg">
<path fill-rule="evenodd" clip-rule="evenodd" d="M12.75 2.5V3.25V3.75H13.25H14V5.25H13.25H12.75V5.75V6.5H11.25V5.75V5.25H10.75H10V3.75H10.75H11.25V3.25V2.5H12.75ZM5.50514 5.00496C4.58413 5.78491 4 6.94972 4 8.25C4 10.5972 5.90279 12.5 8.25 12.5C9.55029 12.5 10.7151 11.9159 11.4951 10.9949C11.4138 10.9983 11.3321 11 11.25 11C8.07436 11 5.5 8.42563 5.5 5.24999C5.5 5.16792 5.50172 5.08623 5.50514 5.00496ZM2.5 8.25C2.5 5.76072 4.08142 3.64271 6.292 2.84219L7.25256 3.80275C7.08933 4.25347 7 4.74047 7 5.24999C7 7.5972 8.90279 9.49999 11.25 9.49999C11.7595 9.49999 12.2465 9.41065 12.6973 9.24743L13.6578 10.208C12.8573 12.4186 10.7393 14 8.25 14C5.07436 14 2.5 11.4256 2.5 8.25Z" fill="currentColor"/>
</svg>
