<svg width="16" height="16" viewBox="0 0 16 16" fill="none" xmlns="http://www.w3.org/2000/svg">
<path fill-rule="evenodd" clip-rule="evenodd" d="M10.8592 1.70741C10.3258 1.70741 9.81423 1.91931 9.43706 2.29649L3.19461 8.53892C2.56252 9.17101 2.20741 10.0283 2.20741 10.9223C2.20741 11.8162 2.56252 12.6735 3.19461 13.3056C3.82671 13.9377 4.68401 14.2928 5.57792 14.2928C6.47184 14.2928 7.32914 13.9377 7.96123 13.3056L14.2037 7.0631L14.7039 6.56293L15.7042 7.56327L15.2041 8.06343L8.96157 14.3059C8.06417 15.2033 6.84704 15.7075 5.57792 15.7075C4.30881 15.7075 3.09168 15.2033 2.19428 14.3059C1.29688 13.4085 0.792725 12.1914 0.792725 10.9223C0.792725 9.65311 1.29688 8.43598 2.19428 7.53858L8.43672 1.29615C9.0792 0.653667 9.9506 0.292725 10.8592 0.292725C11.7679 0.292725 12.6393 0.653667 13.2817 1.29615C13.9242 1.93863 14.2852 2.81003 14.2852 3.71863C14.2852 4.62724 13.9242 5.49864 13.2817 6.14112L7.03246 12.3836C7.03237 12.3837 7.03255 12.3835 7.03246 12.3836C6.64492 12.771 6.11911 12.9889 5.57113 12.9889C5.02303 12.9889 4.49737 12.7712 4.1098 12.3836C3.72223 11.996 3.5045 11.4704 3.5045 10.9223C3.5045 10.3742 3.72223 9.84846 4.1098 9.4609L9.87706 3.70045L10.3776 3.20057L11.3773 4.2015L10.8768 4.70137L5.11014 10.4613C5.11011 10.4613 5.11017 10.4612 5.11014 10.4613C4.98793 10.5835 4.91919 10.7494 4.91919 10.9223C4.91919 11.0952 4.98788 11.261 5.11014 11.3833C5.2324 11.5055 5.39823 11.5742 5.57113 11.5742C5.74404 11.5742 5.90986 11.5055 6.03212 11.3833L12.2814 5.14078C12.2813 5.14087 12.2815 5.14069 12.2814 5.14078C12.6584 4.76363 12.8705 4.25191 12.8705 3.71863C12.8705 3.18522 12.6586 2.67366 12.2814 2.29649C11.9042 1.91931 11.3927 1.70741 10.8592 1.70741Z" fill="currentColor"/>
</svg>
