<svg width="16" height="16" viewBox="0 0 16 16" fill="none" xmlns="http://www.w3.org/2000/svg">
<path fill-rule="evenodd" clip-rule="evenodd" d="M8.75 0.189209L9.28033 0.719539L15.2803 6.71954L15.8107 7.24987L15.2803 7.7802L13.7374 9.3231C13.1911 9.86948 12.3733 9.97904 11.718 9.65176L9.54863 13.5567C8.71088 15.0647 7.12143 15.9999 5.39639 15.9999H0.75H0V15.2499V10.6035C0 8.87844 0.935237 7.28899 2.4432 6.45124L6.34811 4.28184C6.02084 3.62662 6.13039 2.80882 6.67678 2.26243L8.21967 0.719539L8.75 0.189209ZM7.3697 5.43023L10.5696 8.63017L8.2374 12.8282C7.6642 13.86 6.57668 14.4999 5.39639 14.4999H2.56066L5.53033 11.5302L4.46967 10.4696L1.5 13.4392V10.6035C1.5 9.42319 2.1399 8.33567 3.17166 7.76247L7.3697 5.43023ZM12.6768 8.26244C12.5791 8.36007 12.4209 8.36007 12.3232 8.26243L12.0303 7.96954L8.03033 3.96954L7.73744 3.67665C7.63981 3.57902 7.63981 3.42073 7.73744 3.32309L8.75 2.31053L13.6893 7.24987L12.6768 8.26244Z" fill="#666666"/>
</svg>
