<svg width="16" height="16" viewBox="0 0 16 16" fill="none" xmlns="http://www.w3.org/2000/svg">
<path fill-rule="evenodd" clip-rule="evenodd" d="M11.75 0.189209L12.2803 0.719539L15.2803 3.71954L15.8107 4.24987L15.2803 4.7802L5.15901 14.9015C4.45575 15.6048 3.50192 15.9999 2.50736 15.9999H0.75H0V15.2499V13.4925C0 12.498 0.395088 11.5441 1.09835 10.8409L11.2197 0.719539L11.75 0.189209ZM11.75 2.31053L9.81066 4.24987L11.75 6.18921L13.6893 4.24987L11.75 2.31053ZM2.15901 11.9015L8.75 5.31053L10.6893 7.24987L4.09835 13.8409C3.67639 14.2628 3.1041 14.4999 2.50736 14.4999H1.5V13.4925C1.5 12.8958 1.73705 12.3235 2.15901 11.9015ZM9 15.9999H16V14.4999H9V15.9999Z" fill="#666666"/>
</svg>
