<svg width="16" height="16" viewBox="0 0 16 16" fill="none" xmlns="http://www.w3.org/2000/svg">
<path fill-rule="evenodd" clip-rule="evenodd" d="M12.2803 0.719539L11.75 0.189209L11.2197 0.719539L1.09835 10.8409C0.395088 11.5441 0 12.498 0 13.4925V15.2499V15.9999H0.75H2.50736C3.50192 15.9999 4.45575 15.6048 5.15901 14.9015L15.2803 4.7802L15.8107 4.24987L15.2803 3.71954L12.2803 0.719539ZM9.81066 4.24987L11.75 2.31053L13.6893 4.24987L11.75 6.18921L9.81066 4.24987ZM8.75 5.31053L2.15901 11.9015C1.73705 12.3235 1.5 12.8958 1.5 13.4925V14.4999H2.50736C3.1041 14.4999 3.67639 14.2628 4.09835 13.8409L10.6893 7.24987L8.75 5.31053Z" fill="#666666"/>
</svg>
