<svg width="16" height="16" viewBox="0 0 16 16" fill="none" xmlns="http://www.w3.org/2000/svg">
<path fill-rule="evenodd" clip-rule="evenodd" d="M6.81065 1.24987L6.28032 1.7802L5.78489 2.27563L13.1824 5.75681L13.7197 5.21954L14.25 4.68921L15.3107 5.74987L14.7803 6.2802L11.0607 9.99987L15.2803 14.2196L15.8107 14.7499L14.75 15.8106L14.2197 15.2802L9.99999 11.0606L6.28032 14.7802L5.74999 15.3106L4.68933 14.2499L5.21966 13.7196L5.75693 13.1823L2.27575 5.78477L1.78032 6.2802L1.24999 6.81053L0.189331 5.74987L0.719661 5.21954L1.95737 3.98183C1.96537 3.97345 1.97358 3.96523 1.982 3.9572L3.95732 1.98188C3.96535 1.97346 3.97357 1.96525 3.98195 1.95725L5.21966 0.719539L5.74999 0.189209L6.81065 1.24987ZM4.65759 3.40293L3.40305 4.65747L6.88423 12.055L8.93933 9.99987L9.99999 8.93921L12.0551 6.88411L4.65759 3.40293Z" fill="currentColor"/>
</svg>
