<svg width="16" height="16" viewBox="0 0 16 16" fill="none" xmlns="http://www.w3.org/2000/svg">
<path fill-rule="evenodd" clip-rule="evenodd" d="M13.4549 7.22757L13.3229 7.16158L2.5 1.75011L2.4583 1.72926L1.80902 1.40462L1.3618 1.18101C1.19558 1.0979 1 1.21877 1 1.40462V1.90462V2.63053V2.67716V13.323V13.3697V14.0956V14.5956C1 14.7814 1.19558 14.9023 1.3618 14.8192L1.80902 14.5956L2.4583 14.2709L2.5 14.2501L13.3229 8.83864L13.4549 8.77265L14.2546 8.37279L14.5528 8.22372C14.737 8.13159 14.737 7.86863 14.5528 7.7765L14.2546 7.62743L13.4549 7.22757ZM11.6459 8.00011L2.5 3.42716V12.573L11.6459 8.00011Z" fill="#666666"/>
</svg>
