<svg width="17" height="16" viewBox="0 0 17 16" fill="none" xmlns="http://www.w3.org/2000/svg">
<path fill-rule="evenodd" clip-rule="evenodd" d="M4.34004 4.76932C6.43455 2.33698 10.2021 2.33698 12.2966 4.76932L15.0786 7.99999L13.9847 9.27031L15.0117 10.3764L16.6367 8.48938V7.5106L13.4333 3.79054C10.7403 0.663243 5.89633 0.663246 3.20339 3.79054L0 7.5106V8.48938L3.20339 12.2094C5.0525 14.3568 7.91579 15.0297 10.4005 14.2281L9.2366 12.9747C7.48597 13.2832 5.60695 12.7019 4.34004 11.2307L1.55808 7.99999L4.34004 4.76932ZM8.3183 6C7.21373 6 6.3183 6.89543 6.3183 8C6.3183 9.10457 7.21373 10 8.3183 10C9.42287 10 10.3183 9.10457 10.3183 8C10.3183 6.89543 9.42287 6 8.3183 6ZM4.8183 8C4.8183 6.067 6.3853 4.5 8.3183 4.5C10.2513 4.5 11.8183 6.067 11.8183 8C11.8183 8.63488 11.6493 9.23028 11.3537 9.74364L14.3679 12.9897L14.8782 13.5393L13.779 14.5599L13.2687 14.0103L10.3406 10.857C9.7695 11.262 9.0717 11.5 8.3183 11.5C6.3853 11.5 4.8183 9.933 4.8183 8Z" fill="currentColor"/>
</svg>
