<svg width="16" height="16" viewBox="0 0 16 16" fill="none" xmlns="http://www.w3.org/2000/svg">
<path d="M9 7L12.5 2.5L9 7Z" fill="black"/>
<path d="M9 7L12.5 2.5" stroke="#E5484D" stroke-width="1.5" stroke-linejoin="round"/>
<path d="M10.5 9.5L15.75 10.5L10.5 9.5Z" fill="black"/>
<path d="M10.5 9.5L15.75 10.5" stroke="#52AEFF" stroke-width="1.5" stroke-linejoin="round"/>
<path d="M10 8L15.75 6L10 8Z" fill="black"/>
<path d="M10 8L15.75 6" stroke="#45DEC4" stroke-width="1.5" stroke-linejoin="round"/>
<path fill-rule="evenodd" clip-rule="evenodd" d="M6.14568 3.56625L7 2L7.85432 3.56625L12.1818 11.5L13 13H11.2914H2.70863H1L1.81818 11.5L3.31818 8.75H0V7.25H4.13636L6.14568 3.56625ZM3.52681 11.5L7 5.13249L10.4732 11.5H3.52681Z" fill="currentColor"/>
</svg>
