<svg width="17" height="16" viewBox="0 0 17 16" fill="none" xmlns="http://www.w3.org/2000/svg">
<path fill-rule="evenodd" clip-rule="evenodd" d="M16.1349 7.94519C16.1349 5.05063 14.3785 2.56712 11.8731 1.50122H14.3849H15.1349V0.0012207H14.3849H10.2103C9.65799 0.0012207 9.21028 0.448936 9.21028 1.00122V5.17584V5.92584H10.7103V5.17584V2.67394C12.98 3.35116 14.6349 5.45539 14.6349 7.94519C14.6349 10.9828 12.1725 13.4452 9.1349 13.4452H8.3849V14.9452H9.1349C13.0009 14.9452 16.1349 11.8112 16.1349 7.94519ZM5.50489 5.62756C4.60881 5.62756 3.88239 6.35398 3.88239 7.25006V9.38006C3.88239 10.2762 4.60881 11.0026 5.50489 11.0026C6.40098 11.0026 7.12739 10.2762 7.12739 9.38006V7.25006C7.12739 6.35398 6.40098 5.62756 5.50489 5.62756ZM5.12739 7.25006C5.12739 7.04157 5.29641 6.87256 5.50489 6.87256C5.71338 6.87256 5.88239 7.04157 5.88239 7.25006V9.38006C5.88239 9.58855 5.71338 9.75756 5.50489 9.75756C5.29641 9.75756 5.12739 9.58855 5.12739 9.38006V7.25006ZM2.37739 6.37305C2.37739 6.18136 2.28908 6.00036 2.13799 5.88239C1.9869 5.76442 1.78988 5.72264 1.60392 5.76913L0.603914 6.01913L0 6.17011L0.301957 7.37794L0.905871 7.22696L1.13239 7.17033V9.75055H0.754892H0.132392V10.9956H0.754892H1.75489H2.75489H3.37739V9.75055H2.75489H2.37739V6.37305Z" fill="#666666"/>
</svg>
