<svg width="16" height="16" viewBox="0 0 16 16" fill="none" xmlns="http://www.w3.org/2000/svg">
<path fill-rule="evenodd" clip-rule="evenodd" d="M5.77348 6.39779L4.75 7.5L3.72652 6.39779L1.76721 4.28776C1.59545 4.10279 1.5 3.85972 1.5 3.60731V0.999999C1.5 0.447715 1.94772 0 2.5 0H7C7.55229 0 8 0.447715 8 1V3.60731C8 3.85972 7.90455 4.1028 7.73279 4.28776L5.77348 6.39779ZM6.5 3.41096L4.75 5.29558L3 3.41096V1.5H6.5V3.41096ZM5.5 9.5V10.25V12H15.25H16V13.5H15.25H5.5V15.25V16H4V15.25V13.5H0.750001H0V12H0.749999H4V10.25V9.5H5.5Z" fill="#666666"/>
</svg>
