<svg width="16" height="16" viewBox="0 0 16 16" fill="none" xmlns="http://www.w3.org/2000/svg">
<path fill-rule="evenodd" clip-rule="evenodd" d="M7.29289 1.39641C7.68342 1.00589 8.31658 1.00589 8.70711 1.39641L11.7803 4.46963L12.3107 4.99996L11.25 6.06062L10.7197 5.53029L8.75 3.56062V10.25V11H7.25V10.25V3.56062L5.28033 5.53029L4.75 6.06062L3.68934 4.99996L4.21967 4.46963L7.29289 1.39641ZM13.5 9.24996V13.5H2.5V9.24996V8.49996H1V9.24996V14C1 14.5523 1.44771 15 2 15H14C14.5523 15 15 14.5523 15 14V9.24996V8.49996H13.5V9.24996Z" fill="#666666"/>
</svg>
