<svg width="16" height="16" viewBox="0 0 16 16" fill="none" xmlns="http://www.w3.org/2000/svg">
<path fill-rule="evenodd" clip-rule="evenodd" d="M5.14697 7.11108L5.11553 7.13109L4.53256 7.50207L4.08144 7.78915C3.92706 7.88739 3.92706 8.11274 4.08144 8.21098L4.53256 8.49806L5.11553 8.86904L5.14697 8.88905L13.25 14.0456L13.3308 14.097L14.0343 14.5447L14.3658 14.7556C14.5322 14.8615 14.75 14.742 14.75 14.5447V14.1518V13.3179V13.2221V2.77803V2.68226V1.84834V1.45548C14.75 1.25821 14.5322 1.13866 14.3658 1.24457L14.0343 1.45548L13.3308 1.90319L13.25 1.95461L5.14697 7.11108ZM13.25 3.73257L6.54394 8.00007L13.25 12.2676V3.73257ZM0.75 2.00006V1.25006H2.25V2.00006V14.0001V14.7501H0.75V14.0001V2.00006Z" fill="#666666"/>
</svg>
