<svg width="16" height="16" viewBox="0 0 16 16" fill="none" xmlns="http://www.w3.org/2000/svg">
<path fill-rule="evenodd" clip-rule="evenodd" d="M10.603 7.11108L10.6345 7.13109L11.2174 7.50207L11.6686 7.78915C11.8229 7.88739 11.8229 8.11274 11.6686 8.21098L11.2174 8.49806L10.6345 8.86904L10.603 8.88905L2.5 14.0456L2.4192 14.097L1.71566 14.5447L1.38422 14.7556C1.21779 14.8615 1 14.742 1 14.5447V14.1518V13.3179V13.2221V2.77803V2.68226V1.84834V1.45548C1 1.25821 1.21779 1.13866 1.38422 1.24457L1.71566 1.45548L2.4192 1.90319L2.5 1.95461L10.603 7.11108ZM2.5 3.73257L9.20606 8.00007L2.5 12.2676V3.73257ZM15 2.00006V1.25006H13.5V2.00006V14.0001V14.7501H15V14.0001V2.00006Z" fill="currentColor"/>
</svg>
