<svg width="17" height="16" viewBox="0 0 17 16" fill="none" xmlns="http://www.w3.org/2000/svg">
<path fill-rule="evenodd" clip-rule="evenodd" d="M14.0062 1.25007V0.0551758L12.9301 0.574654L5.83467 4.00007H3.25624H2.68329L1.34165 3.32925L0.670821 2.99384L0 4.33548L0.670821 4.67089L14.6708 11.6709L15.3416 12.0063L16.0124 10.6647L15.3416 10.3293L14.0062 9.66154V9.50007V1.25007ZM12.5062 8.91154V2.44496L6.3838 5.40062C6.24821 5.46607 6.0996 5.50007 5.94905 5.50007H5.68329L12.5062 8.91154ZM3.50624 8.00007V7.25007H2.00624V8.00007V11.0001C2.00624 11.5524 2.45395 12.0001 3.00624 12.0001H5.83467L12.9301 15.4255L14.0062 15.945V14.7501V13.5001V12.7501H12.5062V13.5001V13.5552L6.3838 10.5996C6.24821 10.5341 6.0996 10.5001 5.94905 10.5001H3.50624V8.00007Z" fill="currentColor"/>
</svg>
