<svg width="19" height="16" viewBox="0 0 19 16" fill="none" xmlns="http://www.w3.org/2000/svg">
<path fill-rule="evenodd" clip-rule="evenodd" d="M14.2625 1.25L7.06395 4.72514C7.03005 4.7415 6.9929 4.75 6.95526 4.75H5.1895L2.34787 3.32918L1.67705 2.99377L1.00623 4.33542L1.67705 4.67083L15.6771 11.6708L16.3479 12.0062L17.0187 10.6646L16.3479 10.3292L14.2625 9.28648V1.25ZM4.01245 11.25H6.95526C6.9929 11.25 7.03005 11.2585 7.06395 11.2749L14.2625 14.75V13.25L3.77245 8H3.76245V11C3.76245 11.1381 3.87438 11.25 4.01245 11.25Z" fill="currentColor"/>
<path d="M14.2625 1.25007H15.0125V0.0551758L13.9364 0.574654L14.2625 1.25007ZM5.18951 4.75007L4.8541 5.42089L5.01246 5.50007H5.18951V4.75007ZM1.67706 2.99384L2.01246 2.32302L1.34165 1.98761L1.00623 2.65843L1.67706 2.99384ZM1.00623 4.33549L0.335414 4.00008L0 4.6709L0.670824 5.00631L1.00623 4.33549ZM16.3479 12.0063L16.0125 12.6772L16.6833 13.0126L17.0187 12.3417L16.3479 12.0063ZM17.0187 10.6647L17.6896 11.0001L18.025 10.3293L17.3541 9.99384L17.0187 10.6647ZM14.2625 9.28655H13.5125V9.75007L13.9271 9.95737L14.2625 9.28655ZM14.2625 14.7501L13.9364 15.4255L15.0125 15.945V14.7501H14.2625ZM14.2625 13.2501H15.0125V12.7868L14.5982 12.5794L14.2625 13.2501ZM3.77246 8.00007L4.10813 7.32938L3.94966 7.25007H3.77246V8.00007ZM3.76246 8.00007V7.25007H3.01246V8.00007H3.76246ZM7.39002 5.40062L14.5886 1.92548L13.9364 0.574654L6.7379 4.04979L7.39002 5.40062ZM6.95527 5.50007C7.10583 5.50007 7.25444 5.46608 7.39002 5.40062L6.7379 4.04979C6.80569 4.01707 6.88 4.00007 6.95527 4.00007V5.50007ZM5.18951 5.50007H6.95527V4.00007H5.18951V5.50007ZM5.52492 4.07925L2.68329 2.65843L2.01247 4.00007L4.8541 5.42089L5.52492 4.07925ZM2.68329 2.65843L2.01246 2.32302L1.34165 3.66466L2.01247 4.00007L2.68329 2.65843ZM1.00623 2.65843L0.335414 4.00008L1.67706 4.6709L2.34788 3.32925L1.00623 2.65843ZM0.670824 5.00631L1.34165 5.34172L2.01247 4.00007L1.34165 3.66466L0.670824 5.00631ZM1.34165 5.34172L15.3417 12.3417L16.0125 11.0001L2.01247 4.00007L1.34165 5.34172ZM15.3417 12.3417L16.0125 12.6772L16.6833 11.3355L16.0125 11.0001L15.3417 12.3417ZM17.0187 12.3417L17.6896 11.0001L16.3479 10.3293L15.6771 11.6709L17.0187 12.3417ZM17.3541 9.99384L16.6833 9.65843L16.0125 11.0001L16.6833 11.3355L17.3541 9.99384ZM16.6833 9.65843L14.5979 8.61573L13.9271 9.95737L16.0125 11.0001L16.6833 9.65843ZM13.5125 1.25007V9.28655H15.0125V1.25007H13.5125ZM6.95527 10.5001H4.01246V12.0001H6.95527V10.5001ZM7.39002 10.5995C7.25444 10.5341 7.10583 10.5001 6.95527 10.5001V12.0001C6.87999 12.0001 6.80569 11.9831 6.73791 11.9504L7.39002 10.5995ZM14.5886 14.0747L7.39002 10.5995L6.73791 11.9504L13.9364 15.4255L14.5886 14.0747ZM13.5125 13.2501V14.7501H15.0125V13.2501H13.5125ZM3.43679 8.67076L13.9268 13.9208L14.5982 12.5794L4.10813 7.32938L3.43679 8.67076ZM3.76246 8.75007H3.77246V7.25007H3.76246V8.75007ZM4.51246 11.0001V8.00007H3.01246V11.0001H4.51246ZM4.01246 10.5001C4.2886 10.5001 4.51246 10.724 4.51246 11.0001H3.01246C3.01246 11.5524 3.46018 12.0001 4.01246 12.0001V10.5001Z" fill="currentColor"/>
</svg>
