<svg width="16" height="17" viewBox="0 0 16 17" fill="none" xmlns="http://www.w3.org/2000/svg">
<path fill-rule="evenodd" clip-rule="evenodd" d="M7.00001 0H7.75001H8.25001H9.75001H10.25H11V1.5H10.25H9.75001V2.28971C11.1207 2.43571 12.3732 2.97735 13.3911 3.79824L13.9697 3.21967L14.5 2.68934L15.5607 3.75L15.0303 4.28033L14.4518 4.8589C15.4202 6.05976 16 7.58717 16 9.25C16 13.116 12.866 16.25 9.00002 16.25C7.3965 16.25 5.91736 15.71 4.73698 14.8025H2.00002V13.3025H5.00002C5.17555 13.3025 5.34551 13.3641 5.48032 13.4765C6.4344 14.272 7.66041 14.75 9.00002 14.75C12.0376 14.75 14.5 12.2876 14.5 9.25C14.5 6.21243 12.0376 3.75 9.00002 3.75C7.25926 3.75 5.70766 4.55785 4.69866 5.82204L3.5263 4.88633C4.66119 3.46441 6.34099 2.49321 8.25001 2.28974V1.5H7.75001H7.00001V0ZM11.6517 7.65901L11.1213 8.18934L9.53033 9.78033L9 10.3107L7.93934 9.25L8.46967 8.71967L10.0607 7.12868L10.591 6.59835L11.6517 7.65901ZM2 7.25H2.75H4.25H5V8.75H4.25H2.75H2V7.25ZM0.75 10.25H0V11.75H0.75H4.25H5V10.25H4.25H0.75Z" fill="currentColor"/>
</svg>
