<svg width="16" height="17" viewBox="0 0 16 17" fill="none" xmlns="http://www.w3.org/2000/svg">
<path fill-rule="evenodd" clip-rule="evenodd" d="M7.25 1.5V2.28971C5.87928 2.43571 4.62678 2.97736 3.6089 3.79824L3.03033 3.21967L2.5 2.68934L1.43934 3.75L1.96967 4.28033L2.54824 4.8589C1.57979 6.05976 1 7.58717 1 9.25C1 13.116 4.13401 16.25 8 16.25C11.866 16.25 15 13.116 15 9.25C15 7.58717 14.4202 6.05976 13.4518 4.8589L14.0303 4.28033L14.5607 3.75L13.5 2.68934L12.9697 3.21967L12.3911 3.79824C11.3732 2.97736 10.1207 2.43571 8.75 2.28971V1.5H9.25H10V0H9.25H8.75H7.25H6.75H6V1.5H6.75H7.25ZM2.5 9.25C2.5 6.21243 4.96243 3.75 8 3.75C11.0376 3.75 13.5 6.21243 13.5 9.25C13.5 12.2876 11.0376 14.75 8 14.75C4.96243 14.75 2.5 12.2876 2.5 9.25ZM8.75 7V6.25H7.25V7V9.25V10H8.75V9.25V7Z" fill="currentColor"/>
</svg>
