<svg width="16" height="16" viewBox="0 0 16 16" fill="none" xmlns="http://www.w3.org/2000/svg">
<path fill-rule="evenodd" clip-rule="evenodd" d="M9 2.25V1.5H7.5V2.25V2.5V3.25H9V2.5V2.25ZM8.25 10.25C9.35457 10.25 10.25 9.35457 10.25 8.25C10.25 7.14543 9.35457 6.25 8.25 6.25C7.14543 6.25 6.25 7.14543 6.25 8.25C6.25 9.35457 7.14543 10.25 8.25 10.25ZM8.25 11.75C10.183 11.75 11.75 10.183 11.75 8.25C11.75 6.317 10.183 4.75 8.25 4.75C6.317 4.75 4.75 6.317 4.75 8.25C4.75 10.183 6.317 11.75 8.25 11.75ZM9 13.25V14V14.25V15H7.5V14.25V14V13.25H9ZM13.25 7.5H14H14.25H15V9H14.25H14H13.25V7.5ZM2.25 7.5H1.5V9H2.25H2.5H3.25V7.5H2.5H2.25ZM11.2552 4.18414L11.7855 3.65381L11.9623 3.47703L12.4926 2.9467L13.5533 4.00736L13.023 4.53769L12.8462 4.71447L12.3159 5.2448L11.2552 4.18414ZM3.47703 11.9623L2.9467 12.4926L4.00736 13.5533L4.53769 13.023L4.71447 12.8462L5.2448 12.3159L4.18414 11.2552L3.65381 11.7855L3.47703 11.9623ZM4.18414 5.2448L3.65381 4.71447L3.47703 4.53769L2.9467 4.00736L4.00736 2.9467L4.53769 3.47703L4.71447 3.65381L5.2448 4.18414L4.18414 5.2448ZM11.9623 13.023L12.4926 13.5533L13.5533 12.4926L13.023 11.9623L12.8462 11.7855L12.3159 11.2552L11.2552 12.3159L11.7855 12.8462L11.9623 13.023Z" fill="currentColor"/>
</svg>
