<svg width="16" height="16" viewBox="0 0 16 16" fill="none" xmlns="http://www.w3.org/2000/svg">
<path fill-rule="evenodd" clip-rule="evenodd" d="M8.00001 0.583496C6.15186 0.583496 4.89601 1.20754 4.10921 2.08177C3.34402 2.93198 3.08334 3.9518 3.08334 4.66683C3.08334 5.30258 3.25446 5.98776 3.73035 6.62528C3.82673 6.75439 3.934 6.87942 4.05254 7.00012H1.75H1V8.50012H1.75H14.25H15V7.00012H14.25H7.01815L6.51769 6.80252C5.6688 6.46736 5.19511 6.07997 4.93239 5.72801C4.67477 5.3829 4.58334 5.02332 4.58334 4.66683C4.58334 4.27075 4.73934 3.6239 5.22415 3.08522C5.68734 2.57056 6.51483 2.08349 8.00001 2.08349C9.99003 2.08349 10.8295 2.95585 11.1785 3.68962L11.5006 4.36691L12.8552 3.72264L12.5331 3.04534C11.9243 1.76547 10.5425 0.583496 8.00001 0.583496ZM12.9167 11.2501V10.5001H11.4167V11.2501C11.4167 11.6492 11.2587 12.3207 10.7686 12.8816C10.302 13.4156 9.47586 13.9168 8.00001 13.9168C6.13953 13.9168 5.27285 13.0403 4.87848 12.3001L4.52584 11.6381L3.20199 12.3434L3.55464 13.0054C4.18889 14.1959 5.54264 15.4168 8.00001 15.4168C9.85749 15.4168 11.1147 14.7653 11.8981 13.8686C12.658 12.9989 12.9167 11.9622 12.9167 11.2501Z" fill="#666666"/>
</svg>
