<svg width="16" height="16" viewBox="0 0 16 16" fill="none" xmlns="http://www.w3.org/2000/svg">
<path fill-rule="evenodd" clip-rule="evenodd" d="M6.89531 2.23984C6.72984 2.12165 6.5 2.23993 6.5 2.44327V5.25013C6.5 6.21663 5.7165 7.00013 4.75 7.00013H2.5V13.5001H12.1884C12.762 13.5001 13.262 13.1097 13.4011 12.5533L14.4011 8.5533C14.5984 7.76437 14.0017 7.00013 13.1884 7.00013H9.25H8.5V6.25013V3.5147C8.5 3.43396 8.46101 3.35819 8.39531 3.31126L6.89531 2.23984ZM5 2.44327C5 1.01987 6.6089 0.191899 7.76717 1.01924L9.26717 2.09066C9.72706 2.41916 10 2.94953 10 3.5147V5.50013H13.1884C14.9775 5.50013 16.2903 7.18145 15.8563 8.9171L14.8563 12.9171C14.5503 14.1413 13.4503 15.0001 12.1884 15.0001H1.75H1V14.2501V6.25013V5.50013H1.75H4.75C4.88807 5.50013 5 5.3882 5 5.25013V2.44327Z" fill="#666666"/>
</svg>
