<svg width="16" height="16" viewBox="0 0 16 16" fill="none" xmlns="http://www.w3.org/2000/svg">
<path d="M9.72 7.22C10.0517 6.88518 10.4462 6.61919 10.881 6.4373C11.3158 6.25541 11.7822 6.1612 12.2535 6.16009C12.7248 6.15898 13.1916 6.25099 13.6273 6.43083C14.0629 6.61067 14.4587 6.8748 14.7919 7.20806C15.1252 7.54131 15.3893 7.93711 15.5692 8.37274C15.749 8.80836 15.841 9.27522 15.8399 9.74651C15.8388 10.2178 15.7446 10.6842 15.5627 11.119C15.3808 11.5538 15.1148 11.9483 14.78 12.28L14.28 12.78L13.22 11.72L13.72 11.22C14.1034 10.8288 14.3169 10.3021 14.3141 9.75435C14.3114 9.20661 14.0925 8.68209 13.7052 8.29477C13.3179 7.90746 12.7934 7.68864 12.2457 7.68588C11.6979 7.68311 11.1712 7.89662 10.78 8.28L10.28 8.78L9.22 7.72L9.72 7.22ZM13.03 10.03L10.03 13.03L8.97 11.97L11.97 8.97L13.03 10.03ZM7.22 14.78C7.89126 15.4505 8.80123 15.8271 9.75 15.8271C10.6988 15.8271 11.6087 15.4505 12.28 14.78L12.78 14.28L11.72 13.22L11.22 13.72C11.027 13.913 10.7978 14.0662 10.5456 14.1706C10.2933 14.2751 10.023 14.3289 9.75 14.3289C9.477 14.3289 9.20667 14.2751 8.95444 14.1706C8.70222 14.0662 8.47304 13.913 8.28 13.72C8.08696 13.527 7.93383 13.2978 7.82935 13.0456C7.72488 12.7933 7.67111 12.523 7.67111 12.25C7.67111 11.977 7.72488 11.7067 7.82935 11.4544C7.93383 11.2022 8.08696 10.973 8.28 10.78L8.78 10.28L7.72 9.22L7.22 9.72C6.5495 10.3913 6.17288 11.3012 6.17288 12.25C6.17288 13.1988 6.5495 14.1087 7.22 14.78ZM2.5 3.25C2.5 2.38805 2.84241 1.5614 3.4519 0.951903C4.0614 0.34241 4.88805 0 5.75 0L6.25 0C6.6768 0 7.09941 0.0840637 7.49372 0.247392C7.88803 0.410719 8.24631 0.650113 8.5481 0.951903C8.84989 1.25369 9.08928 1.61197 9.25261 2.00628C9.41594 2.40059 9.5 2.8232 9.5 3.25V3.75C9.5 4.1768 9.41594 4.59941 9.25261 4.99372C9.08928 5.38803 8.84989 5.74631 8.5481 6.0481C8.24631 6.34989 7.88803 6.58928 7.49372 6.75261C7.09941 6.91594 6.6768 7 6.25 7H5.75C4.88805 7 4.0614 6.65759 3.4519 6.0481C2.84241 5.4386 2.5 4.61195 2.5 3.75V3.25ZM5.75 1.5C5.28587 1.5 4.84075 1.68437 4.51256 2.01256C4.18437 2.34075 4 2.78587 4 3.25V3.75C4 4.716 4.784 5.5 5.75 5.5H6.25C6.71413 5.5 7.15925 5.31563 7.48744 4.98744C7.81563 4.65925 8 4.21413 8 3.75V3.25C8 2.78587 7.81563 2.34075 7.48744 2.01256C7.15925 1.68437 6.71413 1.5 6.25 1.5H5.75ZM4.5 9.082C2.473 9.42 0.944 10.79 0.069 12.686L0 12.836V16H4.5V14.5H1.5V13.17C2.164 11.819 3.192 10.913 4.5 10.611V9.082Z" fill="#666666"/>
</svg>
