<svg width="17" height="17" viewBox="0 0 17 17" fill="none" xmlns="http://www.w3.org/2000/svg">
<path fill-rule="evenodd" clip-rule="evenodd" d="M15.591 1.59099L16.1214 1.06066L15.0607 0L14.5304 0.53033L12.4518 2.6089C11.2509 1.64045 9.72349 1.06066 8.06066 1.06066C4.19467 1.06066 1.06066 4.19467 1.06066 8.06066C1.06066 9.72349 1.64045 11.2509 2.6089 12.4518L0.53033 14.5304L0 15.0607L1.06066 16.1214L1.59099 15.591L3.66956 13.5124C4.87042 14.4809 6.39783 15.0607 8.06066 15.0607C11.9267 15.0607 15.0607 11.9267 15.0607 8.06066C15.0607 6.39783 14.4809 4.87042 13.5124 3.66956L15.591 1.59099ZM11.3833 3.67736C10.4603 2.97656 9.30902 2.56066 8.06066 2.56066C5.0231 2.56066 2.56066 5.0231 2.56066 8.06066C2.56066 9.30901 2.97656 10.4603 3.67736 11.3833L11.3833 3.67736ZM4.73802 12.444L12.444 4.73802C13.1448 5.66109 13.5607 6.81231 13.5607 8.06066C13.5607 11.0983 11.0983 13.5607 8.06066 13.5607C6.81231 13.5607 5.66109 13.1448 4.73802 12.444Z" fill="currentColor"/>
</svg>
